<mxfile host="app.diagrams.net" modified="2022-12-17T18:09:13.175Z" agent="5.0 (Macintosh; Intel Mac OS X 10_15_7) AppleWebKit/537.36 (KHTML, like Gecko) Chrome/107.0.0.0 Safari/537.36" etag="jin_CcJezXllaaJgldVs" version="20.6.2" type="github" pages="2">
  <diagram name="Page-1" id="03018318-947c-dd8e-b7a3-06fadd420f32">
    <mxGraphModel dx="1234" dy="749" grid="0" gridSize="10" guides="1" tooltips="1" connect="1" arrows="1" fold="1" page="1" pageScale="1" pageWidth="1100" pageHeight="850" background="none" math="0" shadow="0">
      <root>
        <mxCell id="0" />
        <mxCell id="1" parent="0" />
        <mxCell id="677b7b8949515195-1" value="" style="whiteSpace=wrap;html=1;rounded=0;shadow=0;labelBackgroundColor=none;strokeColor=#000000;strokeWidth=1;fillColor=none;fontFamily=Verdana;fontSize=12;fontColor=#000000;align=center;comic=1;" parent="1" vertex="1">
          <mxGeometry x="20" y="34" width="960" height="810" as="geometry" />
        </mxCell>
        <mxCell id="677b7b8949515195-2" value="Summer 2023 Digital Promo" style="whiteSpace=wrap;html=1;rounded=0;shadow=0;labelBackgroundColor=none;strokeWidth=1;fontFamily=Verdana;fontSize=28;align=center;comic=1;" parent="1" vertex="1">
          <mxGeometry x="270" y="65" width="460" height="50" as="geometry" />
        </mxCell>
        <mxCell id="677b7b8949515195-3" value="Search by store id" style="strokeWidth=1;shadow=0;dashed=0;align=center;html=1;shape=mxgraph.mockup.forms.searchBox;strokeColor=#999999;mainText=;strokeColor2=#008cff;fontColor=#666666;fontSize=17;align=left;spacingLeft=3;rounded=0;labelBackgroundColor=none;comic=1;" parent="1" vertex="1">
          <mxGeometry x="750" y="80" width="220" height="30" as="geometry" />
        </mxCell>
        <mxCell id="677b7b8949515195-5" value="Search for store" style="text;html=1;points=[];align=left;verticalAlign=top;spacingTop=-4;fontSize=14;fontFamily=Verdana" parent="1" vertex="1">
          <mxGeometry x="840" y="60" width="60" height="20" as="geometry" />
        </mxCell>
        <mxCell id="677b7b8949515195-9" value="" style="line;strokeWidth=1;html=1;rounded=0;shadow=0;labelBackgroundColor=none;fillColor=none;fontFamily=Verdana;fontSize=14;fontColor=#000000;align=center;comic=1;" parent="1" vertex="1">
          <mxGeometry x="20" y="140" width="960" height="10" as="geometry" />
        </mxCell>
        <mxCell id="OoX4P_LRc05-Hk3tUhpv-3" value="Select a digital promotion" style="html=1;shadow=0;dashed=0;shape=mxgraph.bootstrap.rrect;rSize=5;strokeColor=none;strokeWidth=1;fillColor=#6C767D;fontColor=#ffffff;whiteSpace=wrap;align=right;verticalAlign=middle;fontStyle=0;fontSize=14;spacingRight=20;rounded=0;glass=0;sketch=0;" vertex="1" parent="1">
          <mxGeometry x="40" y="75" width="200" height="40" as="geometry" />
        </mxCell>
        <mxCell id="OoX4P_LRc05-Hk3tUhpv-4" value="" style="shape=triangle;direction=south;fillColor=#ffffff;strokeColor=none;perimeter=none;rounded=0;glass=0;sketch=0;fontSize=11;" vertex="1" parent="OoX4P_LRc05-Hk3tUhpv-3">
          <mxGeometry x="1" y="0.5" width="10" height="5" relative="1" as="geometry">
            <mxPoint x="-17" y="-2.5" as="offset" />
          </mxGeometry>
        </mxCell>
        <mxCell id="ACghVnMqZbIQfi9R8P94-129" value="" style="rounded=0;whiteSpace=wrap;html=1;glass=0;sketch=0;strokeColor=#b85450;fontSize=11;fillColor=#f8cecc;" vertex="1" parent="1">
          <mxGeometry x="34.35257410296412" y="324.4518272425249" width="674.5709828393137" height="98.67109634551495" as="geometry" />
        </mxCell>
        <mxCell id="ACghVnMqZbIQfi9R8P94-130" value="" style="rounded=0;whiteSpace=wrap;html=1;glass=0;sketch=0;strokeColor=#d6b656;fontSize=11;fillColor=#fff2cc;" vertex="1" parent="1">
          <mxGeometry x="34.35257410296412" y="258.67109634551497" width="674.5709828393137" height="65.78073089700997" as="geometry" />
        </mxCell>
        <mxCell id="ACghVnMqZbIQfi9R8P94-131" value="" style="rounded=0;whiteSpace=wrap;html=1;glass=0;sketch=0;strokeColor=#d79b00;fontSize=11;fillColor=#ffe6cc;" vertex="1" parent="1">
          <mxGeometry x="34.35257410296412" y="192.89036544850498" width="674.5709828393137" height="65.78073089700997" as="geometry" />
        </mxCell>
        <mxCell id="ACghVnMqZbIQfi9R8P94-132" value="Menu" style="html=1;fillColor=none;strokeColor=none;fontSize=11;align=left;fontColor=#596780;whiteSpace=wrap;sketch=1;hachureGap=4;pointerEvents=0;fontFamily=Architects Daughter;fontSource=https%3A%2F%2Ffonts.googleapis.com%2Fcss%3Ffamily%3DArchitects%2BDaughter;fontStyle=1" vertex="1" parent="1">
          <mxGeometry x="107.56" y="160" width="52.44" height="21.93" as="geometry" />
        </mxCell>
        <mxCell id="ACghVnMqZbIQfi9R8P94-133" value="Store" style="html=1;fillColor=none;strokeColor=none;fontSize=11;align=left;fontColor=#596780;whiteSpace=wrap;sketch=1;hachureGap=4;pointerEvents=0;fontFamily=Architects Daughter;fontSource=https%3A%2F%2Ffonts.googleapis.com%2Fcss%3Ffamily%3DArchitects%2BDaughter;fontStyle=1" vertex="1" parent="1">
          <mxGeometry x="34.35257410296412" y="160" width="57.41029641185648" height="21.926910299003325" as="geometry" />
        </mxCell>
        <mxCell id="ACghVnMqZbIQfi9R8P94-134" value="Order" style="html=1;fillColor=none;strokeColor=none;fontSize=11;align=right;fontColor=#596780;whiteSpace=wrap;sketch=1;hachureGap=4;pointerEvents=0;fontFamily=Architects Daughter;fontSource=https%3A%2F%2Ffonts.googleapis.com%2Fcss%3Ffamily%3DArchitects%2BDaughter;fontStyle=1" vertex="1" parent="1">
          <mxGeometry x="354.414976599064" y="160" width="57.41029641185648" height="21.926910299003325" as="geometry" />
        </mxCell>
        <mxCell id="ACghVnMqZbIQfi9R8P94-135" value="Menu Image" style="html=1;fillColor=none;strokeColor=none;fontSize=11;align=left;fontColor=#596780;whiteSpace=wrap;sketch=1;hachureGap=4;pointerEvents=0;fontFamily=Architects Daughter;fontSource=https%3A%2F%2Ffonts.googleapis.com%2Fcss%3Ffamily%3DArchitects%2BDaughter;fontStyle=1" vertex="1" parent="1">
          <mxGeometry x="522.3400936037442" y="160" width="129.17316692667708" height="21.926910299003325" as="geometry" />
        </mxCell>
        <mxCell id="ACghVnMqZbIQfi9R8P94-136" value="Journey" style="html=1;fillColor=none;strokeColor=none;fontSize=11;align=center;fontColor=#596780;whiteSpace=wrap;sketch=1;hachureGap=4;pointerEvents=0;fontFamily=Architects Daughter;fontSource=https%3A%2F%2Ffonts.googleapis.com%2Fcss%3Ffamily%3DArchitects%2BDaughter;fontStyle=1" vertex="1" parent="1">
          <mxGeometry x="696.0062402496101" y="160" width="129.17316692667708" height="21.926910299003325" as="geometry" />
        </mxCell>
        <mxCell id="ACghVnMqZbIQfi9R8P94-137" value="Select" style="html=1;fillColor=none;strokeColor=none;fontSize=11;align=center;fontColor=#596780;whiteSpace=wrap;sketch=1;hachureGap=4;pointerEvents=0;fontFamily=Architects Daughter;fontSource=https%3A%2F%2Ffonts.googleapis.com%2Fcss%3Ffamily%3DArchitects%2BDaughter;fontStyle=1" vertex="1" parent="1">
          <mxGeometry x="637.1606864274571" y="160" width="57.41029641185648" height="21.926910299003325" as="geometry" />
        </mxCell>
        <mxCell id="ACghVnMqZbIQfi9R8P94-138" value="" style="shape=line;strokeWidth=2;html=1;strokeColor=#333333;resizeWidth=1;sketch=1;hachureGap=4;pointerEvents=0;fontFamily=Architects Daughter;fontSource=https%3A%2F%2Ffonts.googleapis.com%2Fcss%3Ffamily%3DArchitects%2BDaughter;fontSize=20;" vertex="1" parent="1">
          <mxGeometry x="34.35" y="181.93" width="925.65" height="10.96" as="geometry" />
        </mxCell>
        <mxCell id="ACghVnMqZbIQfi9R8P94-139" value="Line Listing 1" style="strokeColor=none;fillColor=none;fontSize=12;fontColor=#596780;align=left;html=1;sketch=1;hachureGap=4;pointerEvents=0;fontFamily=Architects Daughter;fontSource=https%3A%2F%2Ffonts.googleapis.com%2Fcss%3Ffamily%3DArchitects%2BDaughter;" vertex="1" parent="1">
          <mxGeometry x="106.11544461778473" y="196.1794019933555" width="344.4617784711389" height="21.926910299003325" as="geometry" />
        </mxCell>
        <mxCell id="ACghVnMqZbIQfi9R8P94-140" value="3223" style="strokeColor=none;fillColor=none;fontSize=10;fontColor=#596780;align=left;html=1;sketch=1;hachureGap=4;pointerEvents=0;fontFamily=Architects Daughter;fontSource=https%3A%2F%2Ffonts.googleapis.com%2Fcss%3Ffamily%3DArchitects%2BDaughter;" vertex="1" parent="1">
          <mxGeometry x="34.35257410296412" y="196.1794019933555" width="57.41029641185648" height="21.926910299003325" as="geometry" />
        </mxCell>
        <mxCell id="ACghVnMqZbIQfi9R8P94-141" value="1" style="strokeColor=none;fillColor=none;fontSize=10;fontColor=#596780;align=right;html=1;sketch=1;hachureGap=4;pointerEvents=0;fontFamily=Architects Daughter;fontSource=https%3A%2F%2Ffonts.googleapis.com%2Fcss%3Ffamily%3DArchitects%2BDaughter;" vertex="1" parent="1">
          <mxGeometry x="335.7566302652107" y="196.1794019933555" width="57.41029641185648" height="21.926910299003325" as="geometry" />
        </mxCell>
        <mxCell id="ACghVnMqZbIQfi9R8P94-142" value="Line Listing 2" style="strokeColor=none;fillColor=none;fontSize=12;fontColor=#596780;align=left;html=1;sketch=1;hachureGap=4;pointerEvents=0;fontFamily=Architects Daughter;fontSource=https%3A%2F%2Ffonts.googleapis.com%2Fcss%3Ffamily%3DArchitects%2BDaughter;" vertex="1" parent="1">
          <mxGeometry x="106.11544461778473" y="229.06976744186048" width="344.4617784711389" height="21.926910299003325" as="geometry" />
        </mxCell>
        <mxCell id="ACghVnMqZbIQfi9R8P94-143" value="3223" style="strokeColor=none;fillColor=none;fontSize=10;fontColor=#596780;align=left;html=1;sketch=1;hachureGap=4;pointerEvents=0;fontFamily=Architects Daughter;fontSource=https%3A%2F%2Ffonts.googleapis.com%2Fcss%3Ffamily%3DArchitects%2BDaughter;" vertex="1" parent="1">
          <mxGeometry x="34.35257410296412" y="229.06976744186048" width="57.41029641185648" height="21.926910299003325" as="geometry" />
        </mxCell>
        <mxCell id="ACghVnMqZbIQfi9R8P94-144" value="2" style="strokeColor=none;fillColor=none;fontSize=10;fontColor=#596780;align=right;html=1;sketch=1;hachureGap=4;pointerEvents=0;fontFamily=Architects Daughter;fontSource=https%3A%2F%2Ffonts.googleapis.com%2Fcss%3Ffamily%3DArchitects%2BDaughter;" vertex="1" parent="1">
          <mxGeometry x="335.7566302652107" y="229.06976744186048" width="57.41029641185648" height="21.926910299003325" as="geometry" />
        </mxCell>
        <mxCell id="ACghVnMqZbIQfi9R8P94-145" value="Promo 1" style="strokeColor=none;fillColor=none;fontSize=12;fontColor=#596780;align=left;html=1;sketch=1;hachureGap=4;pointerEvents=0;fontFamily=Architects Daughter;fontSource=https%3A%2F%2Ffonts.googleapis.com%2Fcss%3Ffamily%3DArchitects%2BDaughter;" vertex="1" parent="1">
          <mxGeometry x="106.11544461778473" y="261.96013289036546" width="344.4617784711389" height="21.926910299003325" as="geometry" />
        </mxCell>
        <mxCell id="ACghVnMqZbIQfi9R8P94-146" value="3223" style="strokeColor=none;fillColor=none;fontSize=10;fontColor=#596780;align=left;html=1;sketch=1;hachureGap=4;pointerEvents=0;fontFamily=Architects Daughter;fontSource=https%3A%2F%2Ffonts.googleapis.com%2Fcss%3Ffamily%3DArchitects%2BDaughter;" vertex="1" parent="1">
          <mxGeometry x="34.35257410296412" y="261.96013289036546" width="57.41029641185648" height="21.926910299003325" as="geometry" />
        </mxCell>
        <mxCell id="ACghVnMqZbIQfi9R8P94-147" value="3" style="strokeColor=none;fillColor=none;fontSize=10;fontColor=#596780;align=right;html=1;sketch=1;hachureGap=4;pointerEvents=0;fontFamily=Architects Daughter;fontSource=https%3A%2F%2Ffonts.googleapis.com%2Fcss%3Ffamily%3DArchitects%2BDaughter;" vertex="1" parent="1">
          <mxGeometry x="335.7566302652107" y="261.96013289036546" width="57.41029641185648" height="21.926910299003325" as="geometry" />
        </mxCell>
        <mxCell id="ACghVnMqZbIQfi9R8P94-148" value="Promo 2" style="strokeColor=none;fillColor=none;fontSize=12;fontColor=#596780;align=left;html=1;sketch=1;hachureGap=4;pointerEvents=0;fontFamily=Architects Daughter;fontSource=https%3A%2F%2Ffonts.googleapis.com%2Fcss%3Ffamily%3DArchitects%2BDaughter;" vertex="1" parent="1">
          <mxGeometry x="106.11544461778473" y="294.85049833887047" width="344.4617784711389" height="21.926910299003325" as="geometry" />
        </mxCell>
        <mxCell id="ACghVnMqZbIQfi9R8P94-149" value="3223" style="strokeColor=none;fillColor=none;fontSize=10;fontColor=#596780;align=left;html=1;sketch=1;hachureGap=4;pointerEvents=0;fontFamily=Architects Daughter;fontSource=https%3A%2F%2Ffonts.googleapis.com%2Fcss%3Ffamily%3DArchitects%2BDaughter;" vertex="1" parent="1">
          <mxGeometry x="34.35257410296412" y="294.85049833887047" width="57.41029641185648" height="21.926910299003325" as="geometry" />
        </mxCell>
        <mxCell id="ACghVnMqZbIQfi9R8P94-150" value="4" style="strokeColor=none;fillColor=none;fontSize=10;fontColor=#596780;align=right;html=1;sketch=1;hachureGap=4;pointerEvents=0;fontFamily=Architects Daughter;fontSource=https%3A%2F%2Ffonts.googleapis.com%2Fcss%3Ffamily%3DArchitects%2BDaughter;" vertex="1" parent="1">
          <mxGeometry x="335.7566302652107" y="294.85049833887047" width="57.41029641185648" height="21.926910299003325" as="geometry" />
        </mxCell>
        <mxCell id="ACghVnMqZbIQfi9R8P94-151" value="" style="sketch=0;outlineConnect=0;fontColor=#232F3E;gradientColor=none;fillColor=#D45B07;strokeColor=none;dashed=0;verticalLabelPosition=bottom;verticalAlign=top;align=center;html=1;fontSize=12;fontStyle=0;aspect=fixed;pointerEvents=1;shape=mxgraph.aws4.container_registry_image;" vertex="1" parent="1">
          <mxGeometry x="551.0452418096725" y="193.98671096345515" width="19.396882187579862" height="19.396882187579862" as="geometry" />
        </mxCell>
        <mxCell id="ACghVnMqZbIQfi9R8P94-152" value="&lt;font style=&quot;font-size: 11px;&quot;&gt;Left&lt;/font&gt;" style="rounded=1;fillColor=#F1F2F4;strokeColor=none;html=1;fontColor=#596780;align=left;fontSize=12;spacingLeft=10;sketch=1;hachureGap=4;pointerEvents=0;fontFamily=Architects Daughter;fontSource=https%3A%2F%2Ffonts.googleapis.com%2Fcss%3Ffamily%3DArchitects%2BDaughter;" vertex="1" parent="1">
          <mxGeometry x="724.7113884555384" y="188.50498338870432" width="86.11544461778473" height="32.89036544850499" as="geometry" />
        </mxCell>
        <mxCell id="ACghVnMqZbIQfi9R8P94-153" value="" style="shape=triangle;direction=south;fillColor=#596780;strokeColor=none;html=1;sketch=0;hachureGap=4;pointerEvents=0;fontFamily=Architects Daughter;fontSource=https%3A%2F%2Ffonts.googleapis.com%2Fcss%3Ffamily%3DArchitects%2BDaughter;fontSize=20;" vertex="1" parent="ACghVnMqZbIQfi9R8P94-152">
          <mxGeometry x="1" y="0.5" width="12" height="6" relative="1" as="geometry">
            <mxPoint x="-2" y="-3" as="offset" />
          </mxGeometry>
        </mxCell>
        <mxCell id="ACghVnMqZbIQfi9R8P94-154" value="Transition" style="html=1;fillColor=none;strokeColor=none;fontSize=11;align=left;fontColor=#596780;whiteSpace=wrap;sketch=1;hachureGap=4;pointerEvents=0;fontFamily=Architects Daughter;fontSource=https%3A%2F%2Ffonts.googleapis.com%2Fcss%3Ffamily%3DArchitects%2BDaughter;fontStyle=1" vertex="1" parent="1">
          <mxGeometry x="424.7425897035883" y="160" width="129.17316692667708" height="21.926910299003325" as="geometry" />
        </mxCell>
        <mxCell id="ACghVnMqZbIQfi9R8P94-155" value="0" style="strokeColor=none;fillColor=none;fontSize=10;fontColor=#596780;align=right;html=1;sketch=1;hachureGap=4;pointerEvents=0;fontFamily=Architects Daughter;fontSource=https%3A%2F%2Ffonts.googleapis.com%2Fcss%3Ffamily%3DArchitects%2BDaughter;" vertex="1" parent="1">
          <mxGeometry x="408.9547581903276" y="196.1794019933555" width="57.41029641185648" height="21.926910299003325" as="geometry" />
        </mxCell>
        <mxCell id="ACghVnMqZbIQfi9R8P94-156" value="0" style="strokeColor=none;fillColor=none;fontSize=10;fontColor=#596780;align=right;html=1;sketch=1;hachureGap=4;pointerEvents=0;fontFamily=Architects Daughter;fontSource=https%3A%2F%2Ffonts.googleapis.com%2Fcss%3Ffamily%3DArchitects%2BDaughter;" vertex="1" parent="1">
          <mxGeometry x="408.9547581903276" y="229.06976744186048" width="57.41029641185648" height="21.926910299003325" as="geometry" />
        </mxCell>
        <mxCell id="ACghVnMqZbIQfi9R8P94-157" value="0" style="strokeColor=none;fillColor=none;fontSize=10;fontColor=#596780;align=right;html=1;sketch=1;hachureGap=4;pointerEvents=0;fontFamily=Architects Daughter;fontSource=https%3A%2F%2Ffonts.googleapis.com%2Fcss%3Ffamily%3DArchitects%2BDaughter;" vertex="1" parent="1">
          <mxGeometry x="408.9547581903276" y="261.96013289036546" width="57.41029641185648" height="21.926910299003325" as="geometry" />
        </mxCell>
        <mxCell id="ACghVnMqZbIQfi9R8P94-158" value="0" style="strokeColor=none;fillColor=none;fontSize=10;fontColor=#596780;align=right;html=1;sketch=1;hachureGap=4;pointerEvents=0;fontFamily=Architects Daughter;fontSource=https%3A%2F%2Ffonts.googleapis.com%2Fcss%3Ffamily%3DArchitects%2BDaughter;" vertex="1" parent="1">
          <mxGeometry x="408.9547581903276" y="294.85049833887047" width="57.41029641185648" height="21.926910299003325" as="geometry" />
        </mxCell>
        <mxCell id="ACghVnMqZbIQfi9R8P94-159" value="" style="html=1;shadow=0;dashed=0;shape=mxgraph.atlassian.checkbox_2;fillColor=#0057D8;strokeColor=none;fontColor=#000000;align=left;verticalAlign=middle;fontStyle=0;fontSize=12;labelPosition=right;verticalLabelPosition=middle;spacingLeft=10;sketch=0;hachureGap=4;pointerEvents=0;fontFamily=Architects Daughter;fontSource=https%3A%2F%2Ffonts.googleapis.com%2Fcss%3Ffamily%3DArchitects%2BDaughter;" vertex="1" parent="1">
          <mxGeometry x="651.5132605304213" y="217.00996677740864" width="17.223088923556947" height="13.156146179401995" as="geometry" />
        </mxCell>
        <mxCell id="ACghVnMqZbIQfi9R8P94-160" value="Promo 3" style="strokeColor=none;fillColor=none;fontSize=12;fontColor=#596780;align=left;html=1;sketch=1;hachureGap=4;pointerEvents=0;fontFamily=Architects Daughter;fontSource=https%3A%2F%2Ffonts.googleapis.com%2Fcss%3Ffamily%3DArchitects%2BDaughter;" vertex="1" parent="1">
          <mxGeometry x="106.11544461778473" y="327.7408637873755" width="344.4617784711389" height="21.926910299003325" as="geometry" />
        </mxCell>
        <mxCell id="ACghVnMqZbIQfi9R8P94-161" value="3223" style="strokeColor=none;fillColor=none;fontSize=10;fontColor=#596780;align=left;html=1;sketch=1;hachureGap=4;pointerEvents=0;fontFamily=Architects Daughter;fontSource=https%3A%2F%2Ffonts.googleapis.com%2Fcss%3Ffamily%3DArchitects%2BDaughter;" vertex="1" parent="1">
          <mxGeometry x="34.35257410296412" y="327.7408637873755" width="57.41029641185648" height="21.926910299003325" as="geometry" />
        </mxCell>
        <mxCell id="ACghVnMqZbIQfi9R8P94-162" value="5" style="strokeColor=none;fillColor=none;fontSize=10;fontColor=#596780;align=right;html=1;sketch=1;hachureGap=4;pointerEvents=0;fontFamily=Architects Daughter;fontSource=https%3A%2F%2Ffonts.googleapis.com%2Fcss%3Ffamily%3DArchitects%2BDaughter;" vertex="1" parent="1">
          <mxGeometry x="335.7566302652107" y="327.7408637873755" width="57.41029641185648" height="21.926910299003325" as="geometry" />
        </mxCell>
        <mxCell id="ACghVnMqZbIQfi9R8P94-163" value="Promo 4a" style="strokeColor=none;fillColor=none;fontSize=12;fontColor=#596780;align=left;html=1;sketch=1;hachureGap=4;pointerEvents=0;fontFamily=Architects Daughter;fontSource=https%3A%2F%2Ffonts.googleapis.com%2Fcss%3Ffamily%3DArchitects%2BDaughter;" vertex="1" parent="1">
          <mxGeometry x="106.11544461778473" y="360.6312292358804" width="344.4617784711389" height="21.926910299003325" as="geometry" />
        </mxCell>
        <mxCell id="ACghVnMqZbIQfi9R8P94-164" value="3223" style="strokeColor=none;fillColor=none;fontSize=10;fontColor=#596780;align=left;html=1;sketch=1;hachureGap=4;pointerEvents=0;fontFamily=Architects Daughter;fontSource=https%3A%2F%2Ffonts.googleapis.com%2Fcss%3Ffamily%3DArchitects%2BDaughter;" vertex="1" parent="1">
          <mxGeometry x="34.35257410296412" y="360.6312292358804" width="57.41029641185648" height="21.926910299003325" as="geometry" />
        </mxCell>
        <mxCell id="ACghVnMqZbIQfi9R8P94-165" value="6" style="strokeColor=none;fillColor=none;fontSize=10;fontColor=#596780;align=right;html=1;sketch=1;hachureGap=4;pointerEvents=0;fontFamily=Architects Daughter;fontSource=https%3A%2F%2Ffonts.googleapis.com%2Fcss%3Ffamily%3DArchitects%2BDaughter;" vertex="1" parent="1">
          <mxGeometry x="335.7566302652107" y="360.6312292358804" width="57.41029641185648" height="21.926910299003325" as="geometry" />
        </mxCell>
        <mxCell id="ACghVnMqZbIQfi9R8P94-166" value="0" style="strokeColor=none;fillColor=none;fontSize=10;fontColor=#596780;align=right;html=1;sketch=1;hachureGap=4;pointerEvents=0;fontFamily=Architects Daughter;fontSource=https%3A%2F%2Ffonts.googleapis.com%2Fcss%3Ffamily%3DArchitects%2BDaughter;" vertex="1" parent="1">
          <mxGeometry x="408.9547581903276" y="327.7408637873755" width="57.41029641185648" height="21.926910299003325" as="geometry" />
        </mxCell>
        <mxCell id="ACghVnMqZbIQfi9R8P94-167" value="0" style="strokeColor=none;fillColor=none;fontSize=10;fontColor=#596780;align=right;html=1;sketch=1;hachureGap=4;pointerEvents=0;fontFamily=Architects Daughter;fontSource=https%3A%2F%2Ffonts.googleapis.com%2Fcss%3Ffamily%3DArchitects%2BDaughter;" vertex="1" parent="1">
          <mxGeometry x="408.9547581903276" y="360.6312292358804" width="57.41029641185648" height="21.926910299003325" as="geometry" />
        </mxCell>
        <mxCell id="ACghVnMqZbIQfi9R8P94-168" value="Promo 4b" style="strokeColor=none;fillColor=none;fontSize=12;fontColor=#596780;align=left;html=1;sketch=1;hachureGap=4;pointerEvents=0;fontFamily=Architects Daughter;fontSource=https%3A%2F%2Ffonts.googleapis.com%2Fcss%3Ffamily%3DArchitects%2BDaughter;" vertex="1" parent="1">
          <mxGeometry x="106.11544461778473" y="393.5215946843854" width="344.4617784711389" height="21.926910299003325" as="geometry" />
        </mxCell>
        <mxCell id="ACghVnMqZbIQfi9R8P94-169" value="3223" style="strokeColor=none;fillColor=none;fontSize=10;fontColor=#596780;align=left;html=1;sketch=1;hachureGap=4;pointerEvents=0;fontFamily=Architects Daughter;fontSource=https%3A%2F%2Ffonts.googleapis.com%2Fcss%3Ffamily%3DArchitects%2BDaughter;" vertex="1" parent="1">
          <mxGeometry x="34.35257410296412" y="393.5215946843854" width="57.41029641185648" height="21.926910299003325" as="geometry" />
        </mxCell>
        <mxCell id="ACghVnMqZbIQfi9R8P94-170" value="6" style="strokeColor=none;fillColor=none;fontSize=10;fontColor=#596780;align=right;html=1;sketch=1;hachureGap=4;pointerEvents=0;fontFamily=Architects Daughter;fontSource=https%3A%2F%2Ffonts.googleapis.com%2Fcss%3Ffamily%3DArchitects%2BDaughter;" vertex="1" parent="1">
          <mxGeometry x="335.7566302652107" y="393.5215946843854" width="57.41029641185648" height="21.926910299003325" as="geometry" />
        </mxCell>
        <mxCell id="ACghVnMqZbIQfi9R8P94-171" value="1" style="strokeColor=none;fillColor=none;fontSize=10;fontColor=#596780;align=right;html=1;sketch=1;hachureGap=4;pointerEvents=0;fontFamily=Architects Daughter;fontSource=https%3A%2F%2Ffonts.googleapis.com%2Fcss%3Ffamily%3DArchitects%2BDaughter;" vertex="1" parent="1">
          <mxGeometry x="408.9547581903276" y="393.5215946843854" width="57.41029641185648" height="21.926910299003325" as="geometry" />
        </mxCell>
        <mxCell id="ACghVnMqZbIQfi9R8P94-172" value="Select all for store" style="html=1;fillColor=none;strokeColor=none;fontSize=11;align=center;fontColor=#596780;whiteSpace=wrap;sketch=1;hachureGap=4;pointerEvents=0;fontFamily=Architects Daughter;fontSource=https%3A%2F%2Ffonts.googleapis.com%2Fcss%3Ffamily%3DArchitects%2BDaughter;fontStyle=1" vertex="1" parent="1">
          <mxGeometry x="809.0967238689549" y="160" width="100.46801872074883" height="21.926910299003325" as="geometry" />
        </mxCell>
        <mxCell id="ACghVnMqZbIQfi9R8P94-173" value="" style="rounded=1;fillColor=#F0F2F5;strokeColor=#D8DCE3;fontColor=#000000;align=left;verticalAlign=middle;fontStyle=0;fontSize=12;labelPosition=right;verticalLabelPosition=middle;spacingLeft=10;html=1;shadow=0;dashed=0;sketch=0;hachureGap=4;pointerEvents=0;fontFamily=Architects Daughter;fontSource=https%3A%2F%2Ffonts.googleapis.com%2Fcss%3Ffamily%3DArchitects%2BDaughter;arcSize=0;" vertex="1" parent="1">
          <mxGeometry x="851.1544461778471" y="198.37209302325581" width="17.223088923556947" height="13.156146179401995" as="geometry" />
        </mxCell>
        <mxCell id="ACghVnMqZbIQfi9R8P94-174" value="" style="sketch=0;outlineConnect=0;fontColor=#232F3E;gradientColor=none;fillColor=#D45B07;strokeColor=none;dashed=0;verticalLabelPosition=bottom;verticalAlign=top;align=center;html=1;fontSize=12;fontStyle=0;aspect=fixed;pointerEvents=1;shape=mxgraph.aws4.container_registry_image;" vertex="1" parent="1">
          <mxGeometry x="551.0452418096725" y="229.06976744186048" width="19.396882187579862" height="19.396882187579862" as="geometry" />
        </mxCell>
        <mxCell id="ACghVnMqZbIQfi9R8P94-175" value="" style="sketch=0;outlineConnect=0;fontColor=#232F3E;gradientColor=none;fillColor=#D45B07;strokeColor=none;dashed=0;verticalLabelPosition=bottom;verticalAlign=top;align=center;html=1;fontSize=12;fontStyle=0;aspect=fixed;pointerEvents=1;shape=mxgraph.aws4.container_registry_image;" vertex="1" parent="1">
          <mxGeometry x="551.0452418096725" y="261.96013289036546" width="19.396882187579862" height="19.396882187579862" as="geometry" />
        </mxCell>
        <mxCell id="ACghVnMqZbIQfi9R8P94-176" value="" style="sketch=0;outlineConnect=0;fontColor=#232F3E;gradientColor=none;fillColor=#D45B07;strokeColor=none;dashed=0;verticalLabelPosition=bottom;verticalAlign=top;align=center;html=1;fontSize=12;fontStyle=0;aspect=fixed;pointerEvents=1;shape=mxgraph.aws4.container_registry_image;" vertex="1" parent="1">
          <mxGeometry x="551.0452418096725" y="294.85049833887047" width="19.396882187579862" height="19.396882187579862" as="geometry" />
        </mxCell>
        <mxCell id="ACghVnMqZbIQfi9R8P94-177" value="" style="sketch=0;outlineConnect=0;fontColor=#232F3E;gradientColor=none;fillColor=#D45B07;strokeColor=none;dashed=0;verticalLabelPosition=bottom;verticalAlign=top;align=center;html=1;fontSize=12;fontStyle=0;aspect=fixed;pointerEvents=1;shape=mxgraph.aws4.container_registry_image;" vertex="1" parent="1">
          <mxGeometry x="551.0452418096725" y="327.7408637873755" width="19.396882187579862" height="19.396882187579862" as="geometry" />
        </mxCell>
        <mxCell id="ACghVnMqZbIQfi9R8P94-178" value="" style="sketch=0;outlineConnect=0;fontColor=#232F3E;gradientColor=none;fillColor=#D45B07;strokeColor=none;dashed=0;verticalLabelPosition=bottom;verticalAlign=top;align=center;html=1;fontSize=12;fontStyle=0;aspect=fixed;pointerEvents=1;shape=mxgraph.aws4.container_registry_image;" vertex="1" parent="1">
          <mxGeometry x="551.0452418096725" y="360.6312292358804" width="19.396882187579862" height="19.396882187579862" as="geometry" />
        </mxCell>
        <mxCell id="ACghVnMqZbIQfi9R8P94-179" value="" style="sketch=0;outlineConnect=0;fontColor=#232F3E;gradientColor=none;fillColor=#D45B07;strokeColor=none;dashed=0;verticalLabelPosition=bottom;verticalAlign=top;align=center;html=1;fontSize=12;fontStyle=0;aspect=fixed;pointerEvents=1;shape=mxgraph.aws4.container_registry_image;" vertex="1" parent="1">
          <mxGeometry x="551.0452418096725" y="391.3289036544851" width="19.396882187579862" height="19.396882187579862" as="geometry" />
        </mxCell>
        <mxCell id="ACghVnMqZbIQfi9R8P94-180" value="" style="rounded=1;fillColor=#F0F2F5;strokeColor=#D8DCE3;fontColor=#000000;align=left;verticalAlign=middle;fontStyle=0;fontSize=12;labelPosition=right;verticalLabelPosition=middle;spacingLeft=10;html=1;shadow=0;dashed=0;sketch=0;hachureGap=4;pointerEvents=0;fontFamily=Architects Daughter;fontSource=https%3A%2F%2Ffonts.googleapis.com%2Fcss%3Ffamily%3DArchitects%2BDaughter;" vertex="1" parent="1">
          <mxGeometry x="651.5132605304213" y="286.0797342192691" width="17.223088923556947" height="13.156146179401995" as="geometry" />
        </mxCell>
        <mxCell id="ACghVnMqZbIQfi9R8P94-181" value="" style="rounded=1;fillColor=#F0F2F5;strokeColor=#D8DCE3;fontColor=#000000;align=left;verticalAlign=middle;fontStyle=0;fontSize=12;labelPosition=right;verticalLabelPosition=middle;spacingLeft=10;html=1;shadow=0;dashed=0;sketch=0;hachureGap=4;pointerEvents=0;fontFamily=Architects Daughter;fontSource=https%3A%2F%2Ffonts.googleapis.com%2Fcss%3Ffamily%3DArchitects%2BDaughter;" vertex="1" parent="1">
          <mxGeometry x="651.5132605304213" y="363.9202657807309" width="17.223088923556947" height="13.156146179401995" as="geometry" />
        </mxCell>
        <mxCell id="ACghVnMqZbIQfi9R8P94-182" value="" style="shape=line;strokeWidth=2;html=1;strokeColor=#CCCCCC;resizeWidth=1;sketch=1;hachureGap=4;pointerEvents=0;fontFamily=Architects Daughter;fontSource=https%3A%2F%2Ffonts.googleapis.com%2Fcss%3Ffamily%3DArchitects%2BDaughter;fontSize=20;" vertex="1" parent="1">
          <mxGeometry x="34.35257410296412" y="420.93023255813955" width="904.2121684867396" height="10.963455149501662" as="geometry" />
        </mxCell>
        <mxCell id="ACghVnMqZbIQfi9R8P94-183" value="" style="shape=triangle;direction=south;fillColor=#596780;strokeColor=none;html=1;sketch=0;hachureGap=4;pointerEvents=0;fontFamily=Architects Daughter;fontSource=https%3A%2F%2Ffonts.googleapis.com%2Fcss%3Ffamily%3DArchitects%2BDaughter;fontSize=20;" vertex="1" parent="1">
          <mxGeometry x="809.3915756630266" y="442.8571428571429" width="17.223088923556947" height="6.578073089700998" as="geometry" />
        </mxCell>
        <mxCell id="ACghVnMqZbIQfi9R8P94-184" value="" style="rounded=1;fillColor=#F0F2F5;strokeColor=#D8DCE3;fontColor=#000000;align=left;verticalAlign=middle;fontStyle=0;fontSize=12;labelPosition=right;verticalLabelPosition=middle;spacingLeft=10;html=1;shadow=0;dashed=0;sketch=0;hachureGap=4;pointerEvents=0;fontFamily=Architects Daughter;fontSource=https%3A%2F%2Ffonts.googleapis.com%2Fcss%3Ffamily%3DArchitects%2BDaughter;arcSize=0;" vertex="1" parent="1">
          <mxGeometry x="852.5897035881437" y="439.5681063122924" width="17.223088923556947" height="13.156146179401995" as="geometry" />
        </mxCell>
        <mxCell id="ACghVnMqZbIQfi9R8P94-185" value="" style="shape=line;strokeWidth=2;html=1;strokeColor=#CCCCCC;resizeWidth=1;sketch=1;hachureGap=4;pointerEvents=0;fontFamily=Architects Daughter;fontSource=https%3A%2F%2Ffonts.googleapis.com%2Fcss%3Ffamily%3DArchitects%2BDaughter;fontSize=20;" vertex="1" parent="1">
          <mxGeometry x="35.787831513260535" y="662.126245847176" width="904.2121684867396" height="10.963455149501662" as="geometry" />
        </mxCell>
        <mxCell id="ACghVnMqZbIQfi9R8P94-186" value="Line Listing 1" style="strokeColor=none;fillColor=none;fontSize=12;fontColor=#596780;align=left;html=1;sketch=1;hachureGap=4;pointerEvents=0;fontFamily=Architects Daughter;fontSource=https%3A%2F%2Ffonts.googleapis.com%2Fcss%3Ffamily%3DArchitects%2BDaughter;" vertex="1" parent="1">
          <mxGeometry x="107.55070202808115" y="678.5714285714286" width="344.4617784711389" height="21.926910299003325" as="geometry" />
        </mxCell>
        <mxCell id="ACghVnMqZbIQfi9R8P94-187" value="" style="shape=mxgraph.mockup.misc.progressBar;fillColor=none;strokeColor=none;fillColor2=#F2F2F2;barPos=80;sketch=1;hachureGap=4;pointerEvents=0;fontFamily=Architects Daughter;fontSource=https%3A%2F%2Ffonts.googleapis.com%2Fcss%3Ffamily%3DArchitects%2BDaughter;fontSize=20;" vertex="1" parent="1">
          <mxGeometry x="279.78159126365057" y="681.8604651162791" width="114.82059282371296" height="10.963455149501662" as="geometry" />
        </mxCell>
        <mxCell id="ACghVnMqZbIQfi9R8P94-188" value="3344" style="strokeColor=none;fillColor=none;fontSize=10;fontColor=#596780;align=left;html=1;sketch=1;hachureGap=4;pointerEvents=0;fontFamily=Architects Daughter;fontSource=https%3A%2F%2Ffonts.googleapis.com%2Fcss%3Ffamily%3DArchitects%2BDaughter;" vertex="1" parent="1">
          <mxGeometry x="35.787831513260535" y="678.5714285714286" width="57.41029641185648" height="21.926910299003325" as="geometry" />
        </mxCell>
        <mxCell id="ACghVnMqZbIQfi9R8P94-189" value="1" style="strokeColor=none;fillColor=none;fontSize=10;fontColor=#596780;align=right;html=1;sketch=1;hachureGap=4;pointerEvents=0;fontFamily=Architects Daughter;fontSource=https%3A%2F%2Ffonts.googleapis.com%2Fcss%3Ffamily%3DArchitects%2BDaughter;" vertex="1" parent="1">
          <mxGeometry x="337.1918876755071" y="678.5714285714286" width="57.41029641185648" height="21.926910299003325" as="geometry" />
        </mxCell>
        <mxCell id="ACghVnMqZbIQfi9R8P94-190" value="Line Listing 2" style="strokeColor=none;fillColor=none;fontSize=12;fontColor=#596780;align=left;html=1;sketch=1;hachureGap=4;pointerEvents=0;fontFamily=Architects Daughter;fontSource=https%3A%2F%2Ffonts.googleapis.com%2Fcss%3Ffamily%3DArchitects%2BDaughter;" vertex="1" parent="1">
          <mxGeometry x="107.55070202808115" y="711.4617940199336" width="344.4617784711389" height="21.926910299003325" as="geometry" />
        </mxCell>
        <mxCell id="ACghVnMqZbIQfi9R8P94-191" value="" style="shape=mxgraph.mockup.misc.progressBar;fillColor=none;strokeColor=none;fillColor2=#F2F2F2;barPos=80;sketch=1;hachureGap=4;pointerEvents=0;fontFamily=Architects Daughter;fontSource=https%3A%2F%2Ffonts.googleapis.com%2Fcss%3Ffamily%3DArchitects%2BDaughter;fontSize=20;" vertex="1" parent="1">
          <mxGeometry x="279.78159126365057" y="714.7508305647841" width="114.82059282371296" height="10.963455149501662" as="geometry" />
        </mxCell>
        <mxCell id="ACghVnMqZbIQfi9R8P94-192" value="3344" style="strokeColor=none;fillColor=none;fontSize=10;fontColor=#596780;align=left;html=1;sketch=1;hachureGap=4;pointerEvents=0;fontFamily=Architects Daughter;fontSource=https%3A%2F%2Ffonts.googleapis.com%2Fcss%3Ffamily%3DArchitects%2BDaughter;" vertex="1" parent="1">
          <mxGeometry x="35.787831513260535" y="711.4617940199336" width="57.41029641185648" height="21.926910299003325" as="geometry" />
        </mxCell>
        <mxCell id="ACghVnMqZbIQfi9R8P94-193" value="2" style="strokeColor=none;fillColor=none;fontSize=10;fontColor=#596780;align=right;html=1;sketch=1;hachureGap=4;pointerEvents=0;fontFamily=Architects Daughter;fontSource=https%3A%2F%2Ffonts.googleapis.com%2Fcss%3Ffamily%3DArchitects%2BDaughter;" vertex="1" parent="1">
          <mxGeometry x="337.1918876755071" y="711.4617940199336" width="57.41029641185648" height="21.926910299003325" as="geometry" />
        </mxCell>
        <mxCell id="ACghVnMqZbIQfi9R8P94-194" value="Promo 1" style="strokeColor=none;fillColor=none;fontSize=12;fontColor=#596780;align=left;html=1;sketch=1;hachureGap=4;pointerEvents=0;fontFamily=Architects Daughter;fontSource=https%3A%2F%2Ffonts.googleapis.com%2Fcss%3Ffamily%3DArchitects%2BDaughter;" vertex="1" parent="1">
          <mxGeometry x="107.55070202808115" y="744.3521594684386" width="344.4617784711389" height="21.926910299003325" as="geometry" />
        </mxCell>
        <mxCell id="ACghVnMqZbIQfi9R8P94-195" value="" style="shape=mxgraph.mockup.misc.progressBar;fillColor=none;strokeColor=none;fillColor2=#F2F2F2;barPos=80;sketch=1;hachureGap=4;pointerEvents=0;fontFamily=Architects Daughter;fontSource=https%3A%2F%2Ffonts.googleapis.com%2Fcss%3Ffamily%3DArchitects%2BDaughter;fontSize=20;" vertex="1" parent="1">
          <mxGeometry x="279.78159126365057" y="747.6411960132891" width="114.82059282371296" height="10.963455149501662" as="geometry" />
        </mxCell>
        <mxCell id="ACghVnMqZbIQfi9R8P94-196" value="3344" style="strokeColor=none;fillColor=none;fontSize=10;fontColor=#596780;align=left;html=1;sketch=1;hachureGap=4;pointerEvents=0;fontFamily=Architects Daughter;fontSource=https%3A%2F%2Ffonts.googleapis.com%2Fcss%3Ffamily%3DArchitects%2BDaughter;" vertex="1" parent="1">
          <mxGeometry x="35.787831513260535" y="744.3521594684386" width="57.41029641185648" height="21.926910299003325" as="geometry" />
        </mxCell>
        <mxCell id="ACghVnMqZbIQfi9R8P94-197" value="3" style="strokeColor=none;fillColor=none;fontSize=10;fontColor=#596780;align=right;html=1;sketch=1;hachureGap=4;pointerEvents=0;fontFamily=Architects Daughter;fontSource=https%3A%2F%2Ffonts.googleapis.com%2Fcss%3Ffamily%3DArchitects%2BDaughter;" vertex="1" parent="1">
          <mxGeometry x="337.1918876755071" y="744.3521594684386" width="57.41029641185648" height="21.926910299003325" as="geometry" />
        </mxCell>
        <mxCell id="ACghVnMqZbIQfi9R8P94-198" value="" style="sketch=0;outlineConnect=0;fontColor=#232F3E;gradientColor=none;fillColor=#D45B07;strokeColor=none;dashed=0;verticalLabelPosition=bottom;verticalAlign=top;align=center;html=1;fontSize=12;fontStyle=0;aspect=fixed;pointerEvents=1;shape=mxgraph.aws4.container_registry_image;" vertex="1" parent="1">
          <mxGeometry x="552.4804992199688" y="676.3787375415283" width="19.396882187579862" height="19.396882187579862" as="geometry" />
        </mxCell>
        <mxCell id="ACghVnMqZbIQfi9R8P94-199" value="0" style="strokeColor=none;fillColor=none;fontSize=10;fontColor=#596780;align=right;html=1;sketch=1;hachureGap=4;pointerEvents=0;fontFamily=Architects Daughter;fontSource=https%3A%2F%2Ffonts.googleapis.com%2Fcss%3Ffamily%3DArchitects%2BDaughter;" vertex="1" parent="1">
          <mxGeometry x="410.39001560062417" y="678.5714285714286" width="57.41029641185648" height="21.926910299003325" as="geometry" />
        </mxCell>
        <mxCell id="ACghVnMqZbIQfi9R8P94-200" value="0" style="strokeColor=none;fillColor=none;fontSize=10;fontColor=#596780;align=right;html=1;sketch=1;hachureGap=4;pointerEvents=0;fontFamily=Architects Daughter;fontSource=https%3A%2F%2Ffonts.googleapis.com%2Fcss%3Ffamily%3DArchitects%2BDaughter;" vertex="1" parent="1">
          <mxGeometry x="410.39001560062417" y="711.4617940199336" width="57.41029641185648" height="21.926910299003325" as="geometry" />
        </mxCell>
        <mxCell id="ACghVnMqZbIQfi9R8P94-201" value="0" style="strokeColor=none;fillColor=none;fontSize=10;fontColor=#596780;align=right;html=1;sketch=1;hachureGap=4;pointerEvents=0;fontFamily=Architects Daughter;fontSource=https%3A%2F%2Ffonts.googleapis.com%2Fcss%3Ffamily%3DArchitects%2BDaughter;" vertex="1" parent="1">
          <mxGeometry x="410.39001560062417" y="744.3521594684386" width="57.41029641185648" height="21.926910299003325" as="geometry" />
        </mxCell>
        <mxCell id="ACghVnMqZbIQfi9R8P94-202" value="" style="rounded=1;fillColor=#F0F2F5;strokeColor=#D8DCE3;fontColor=#000000;align=left;verticalAlign=middle;fontStyle=0;fontSize=12;labelPosition=right;verticalLabelPosition=middle;spacingLeft=10;html=1;shadow=0;dashed=0;sketch=0;hachureGap=4;pointerEvents=0;fontFamily=Architects Daughter;fontSource=https%3A%2F%2Ffonts.googleapis.com%2Fcss%3Ffamily%3DArchitects%2BDaughter;" vertex="1" parent="1">
          <mxGeometry x="652.9485179407178" y="699.4019933554817" width="17.223088923556947" height="13.156146179401995" as="geometry" />
        </mxCell>
        <mxCell id="ACghVnMqZbIQfi9R8P94-203" value="" style="rounded=1;fillColor=#F0F2F5;strokeColor=#D8DCE3;fontColor=#000000;align=left;verticalAlign=middle;fontStyle=0;fontSize=12;labelPosition=right;verticalLabelPosition=middle;spacingLeft=10;html=1;shadow=0;dashed=0;sketch=0;hachureGap=4;pointerEvents=0;fontFamily=Architects Daughter;fontSource=https%3A%2F%2Ffonts.googleapis.com%2Fcss%3Ffamily%3DArchitects%2BDaughter;arcSize=0;" vertex="1" parent="1">
          <mxGeometry x="882.5897035881437" y="680.764119601329" width="17.223088923556947" height="13.156146179401995" as="geometry" />
        </mxCell>
        <mxCell id="ACghVnMqZbIQfi9R8P94-204" value="" style="sketch=0;outlineConnect=0;fontColor=#232F3E;gradientColor=none;fillColor=#D45B07;strokeColor=none;dashed=0;verticalLabelPosition=bottom;verticalAlign=top;align=center;html=1;fontSize=12;fontStyle=0;aspect=fixed;pointerEvents=1;shape=mxgraph.aws4.container_registry_image;" vertex="1" parent="1">
          <mxGeometry x="552.4804992199688" y="711.4617940199336" width="19.396882187579862" height="19.396882187579862" as="geometry" />
        </mxCell>
        <mxCell id="ACghVnMqZbIQfi9R8P94-205" value="" style="sketch=0;outlineConnect=0;fontColor=#232F3E;gradientColor=none;fillColor=#D45B07;strokeColor=none;dashed=0;verticalLabelPosition=bottom;verticalAlign=top;align=center;html=1;fontSize=12;fontStyle=0;aspect=fixed;pointerEvents=1;shape=mxgraph.aws4.container_registry_image;" vertex="1" parent="1">
          <mxGeometry x="552.4804992199688" y="744.3521594684386" width="19.396882187579862" height="19.396882187579862" as="geometry" />
        </mxCell>
        <mxCell id="ACghVnMqZbIQfi9R8P94-206" value="" style="rounded=1;fillColor=#F0F2F5;strokeColor=#D8DCE3;fontColor=#000000;align=left;verticalAlign=middle;fontStyle=0;fontSize=12;labelPosition=right;verticalLabelPosition=middle;spacingLeft=10;html=1;shadow=0;dashed=0;sketch=0;hachureGap=4;pointerEvents=0;fontFamily=Architects Daughter;fontSource=https%3A%2F%2Ffonts.googleapis.com%2Fcss%3Ffamily%3DArchitects%2BDaughter;" vertex="1" parent="1">
          <mxGeometry x="652.9485179407178" y="759.7009966777408" width="17.223088923556947" height="13.156146179401995" as="geometry" />
        </mxCell>
        <mxCell id="ACghVnMqZbIQfi9R8P94-207" value="Publish" style="rounded=1;fillColor=#0057D8;strokeColor=none;html=1;fontColor=#ffffff;align=center;verticalAlign=middle;fontStyle=0;fontSize=12;sketch=0;" vertex="1" parent="1">
          <mxGeometry x="809.3915756630266" y="783.8205980066446" width="123.43213728549144" height="36.179401993355484" as="geometry" />
        </mxCell>
        <mxCell id="ACghVnMqZbIQfi9R8P94-208" value="&lt;font style=&quot;font-size: 11px;&quot;&gt;Left&lt;/font&gt;" style="rounded=1;fillColor=#F1F2F4;strokeColor=none;html=1;fontColor=#596780;align=left;fontSize=12;spacingLeft=10;sketch=1;hachureGap=4;pointerEvents=0;fontFamily=Architects Daughter;fontSource=https%3A%2F%2Ffonts.googleapis.com%2Fcss%3Ffamily%3DArchitects%2BDaughter;" vertex="1" parent="1">
          <mxGeometry x="724.7113884555384" y="429.7009966777409" width="86.11544461778473" height="32.89036544850499" as="geometry" />
        </mxCell>
        <mxCell id="ACghVnMqZbIQfi9R8P94-209" value="" style="shape=triangle;direction=south;fillColor=#596780;strokeColor=none;html=1;sketch=0;hachureGap=4;pointerEvents=0;fontFamily=Architects Daughter;fontSource=https%3A%2F%2Ffonts.googleapis.com%2Fcss%3Ffamily%3DArchitects%2BDaughter;fontSize=20;" vertex="1" parent="ACghVnMqZbIQfi9R8P94-208">
          <mxGeometry x="1" y="0.5" width="12" height="6" relative="1" as="geometry">
            <mxPoint x="-2" y="-3" as="offset" />
          </mxGeometry>
        </mxCell>
        <mxCell id="ACghVnMqZbIQfi9R8P94-210" value="&lt;font style=&quot;font-size: 11px;&quot;&gt;Right&lt;/font&gt;" style="rounded=1;fillColor=#F1F2F4;strokeColor=none;html=1;fontColor=#596780;align=left;fontSize=12;spacingLeft=10;sketch=1;hachureGap=4;pointerEvents=0;fontFamily=Architects Daughter;fontSource=https%3A%2F%2Ffonts.googleapis.com%2Fcss%3Ffamily%3DArchitects%2BDaughter;" vertex="1" parent="1">
          <mxGeometry x="724.7113884555384" y="673.0897009966778" width="86.11544461778473" height="32.89036544850499" as="geometry" />
        </mxCell>
        <mxCell id="ACghVnMqZbIQfi9R8P94-211" value="" style="shape=triangle;direction=south;fillColor=#596780;strokeColor=none;html=1;sketch=0;hachureGap=4;pointerEvents=0;fontFamily=Architects Daughter;fontSource=https%3A%2F%2Ffonts.googleapis.com%2Fcss%3Ffamily%3DArchitects%2BDaughter;fontSize=20;" vertex="1" parent="ACghVnMqZbIQfi9R8P94-210">
          <mxGeometry x="1" y="0.5" width="12" height="6" relative="1" as="geometry">
            <mxPoint x="-2" y="-3" as="offset" />
          </mxGeometry>
        </mxCell>
        <mxCell id="ACghVnMqZbIQfi9R8P94-212" value="" style="rounded=0;whiteSpace=wrap;html=1;glass=0;sketch=0;strokeColor=#b85450;fontSize=11;fillColor=#f8cecc;" vertex="1" parent="1">
          <mxGeometry x="34.35257410296412" y="560.1661129568107" width="674.5709828393137" height="98.67109634551495" as="geometry" />
        </mxCell>
        <mxCell id="ACghVnMqZbIQfi9R8P94-213" value="" style="rounded=0;whiteSpace=wrap;html=1;glass=0;sketch=0;strokeColor=#d6b656;fontSize=11;fillColor=#fff2cc;" vertex="1" parent="1">
          <mxGeometry x="34.35257410296412" y="494.3853820598007" width="674.5709828393137" height="65.78073089700997" as="geometry" />
        </mxCell>
        <mxCell id="ACghVnMqZbIQfi9R8P94-214" value="" style="rounded=0;whiteSpace=wrap;html=1;glass=0;sketch=0;strokeColor=#d79b00;fontSize=11;fillColor=#ffe6cc;" vertex="1" parent="1">
          <mxGeometry x="34.35257410296412" y="428.60465116279073" width="674.5709828393137" height="65.78073089700997" as="geometry" />
        </mxCell>
        <mxCell id="ACghVnMqZbIQfi9R8P94-215" value="Line Listing 1" style="strokeColor=none;fillColor=none;fontSize=12;fontColor=#596780;align=left;html=1;sketch=1;hachureGap=4;pointerEvents=0;fontFamily=Architects Daughter;fontSource=https%3A%2F%2Ffonts.googleapis.com%2Fcss%3Ffamily%3DArchitects%2BDaughter;" vertex="1" parent="1">
          <mxGeometry x="106.11544461778473" y="431.8936877076412" width="344.4617784711389" height="21.926910299003325" as="geometry" />
        </mxCell>
        <mxCell id="ACghVnMqZbIQfi9R8P94-216" value="5555" style="strokeColor=none;fillColor=none;fontSize=10;fontColor=#596780;align=left;html=1;sketch=1;hachureGap=4;pointerEvents=0;fontFamily=Architects Daughter;fontSource=https%3A%2F%2Ffonts.googleapis.com%2Fcss%3Ffamily%3DArchitects%2BDaughter;" vertex="1" parent="1">
          <mxGeometry x="34.35257410296412" y="431.8936877076412" width="57.41029641185648" height="21.926910299003325" as="geometry" />
        </mxCell>
        <mxCell id="ACghVnMqZbIQfi9R8P94-217" value="1" style="strokeColor=none;fillColor=none;fontSize=10;fontColor=#596780;align=right;html=1;sketch=1;hachureGap=4;pointerEvents=0;fontFamily=Architects Daughter;fontSource=https%3A%2F%2Ffonts.googleapis.com%2Fcss%3Ffamily%3DArchitects%2BDaughter;" vertex="1" parent="1">
          <mxGeometry x="335.7566302652107" y="431.8936877076412" width="57.41029641185648" height="21.926910299003325" as="geometry" />
        </mxCell>
        <mxCell id="ACghVnMqZbIQfi9R8P94-218" value="Line Listing 2" style="strokeColor=none;fillColor=none;fontSize=12;fontColor=#596780;align=left;html=1;sketch=1;hachureGap=4;pointerEvents=0;fontFamily=Architects Daughter;fontSource=https%3A%2F%2Ffonts.googleapis.com%2Fcss%3Ffamily%3DArchitects%2BDaughter;" vertex="1" parent="1">
          <mxGeometry x="106.11544461778473" y="464.78405315614623" width="344.4617784711389" height="21.926910299003325" as="geometry" />
        </mxCell>
        <mxCell id="ACghVnMqZbIQfi9R8P94-219" value="5555" style="strokeColor=none;fillColor=none;fontSize=10;fontColor=#596780;align=left;html=1;sketch=1;hachureGap=4;pointerEvents=0;fontFamily=Architects Daughter;fontSource=https%3A%2F%2Ffonts.googleapis.com%2Fcss%3Ffamily%3DArchitects%2BDaughter;" vertex="1" parent="1">
          <mxGeometry x="34.35257410296412" y="464.78405315614623" width="57.41029641185648" height="21.926910299003325" as="geometry" />
        </mxCell>
        <mxCell id="ACghVnMqZbIQfi9R8P94-220" value="2" style="strokeColor=none;fillColor=none;fontSize=10;fontColor=#596780;align=right;html=1;sketch=1;hachureGap=4;pointerEvents=0;fontFamily=Architects Daughter;fontSource=https%3A%2F%2Ffonts.googleapis.com%2Fcss%3Ffamily%3DArchitects%2BDaughter;" vertex="1" parent="1">
          <mxGeometry x="335.7566302652107" y="464.78405315614623" width="57.41029641185648" height="21.926910299003325" as="geometry" />
        </mxCell>
        <mxCell id="ACghVnMqZbIQfi9R8P94-221" value="Promo 1" style="strokeColor=none;fillColor=none;fontSize=12;fontColor=#596780;align=left;html=1;sketch=1;hachureGap=4;pointerEvents=0;fontFamily=Architects Daughter;fontSource=https%3A%2F%2Ffonts.googleapis.com%2Fcss%3Ffamily%3DArchitects%2BDaughter;" vertex="1" parent="1">
          <mxGeometry x="106.11544461778473" y="497.6744186046512" width="344.4617784711389" height="21.926910299003325" as="geometry" />
        </mxCell>
        <mxCell id="ACghVnMqZbIQfi9R8P94-222" value="5555" style="strokeColor=none;fillColor=none;fontSize=10;fontColor=#596780;align=left;html=1;sketch=1;hachureGap=4;pointerEvents=0;fontFamily=Architects Daughter;fontSource=https%3A%2F%2Ffonts.googleapis.com%2Fcss%3Ffamily%3DArchitects%2BDaughter;" vertex="1" parent="1">
          <mxGeometry x="34.35257410296412" y="497.6744186046512" width="57.41029641185648" height="21.926910299003325" as="geometry" />
        </mxCell>
        <mxCell id="ACghVnMqZbIQfi9R8P94-223" value="3" style="strokeColor=none;fillColor=none;fontSize=10;fontColor=#596780;align=right;html=1;sketch=1;hachureGap=4;pointerEvents=0;fontFamily=Architects Daughter;fontSource=https%3A%2F%2Ffonts.googleapis.com%2Fcss%3Ffamily%3DArchitects%2BDaughter;" vertex="1" parent="1">
          <mxGeometry x="335.7566302652107" y="497.6744186046512" width="57.41029641185648" height="21.926910299003325" as="geometry" />
        </mxCell>
        <mxCell id="ACghVnMqZbIQfi9R8P94-224" value="Promo 2" style="strokeColor=none;fillColor=none;fontSize=12;fontColor=#596780;align=left;html=1;sketch=1;hachureGap=4;pointerEvents=0;fontFamily=Architects Daughter;fontSource=https%3A%2F%2Ffonts.googleapis.com%2Fcss%3Ffamily%3DArchitects%2BDaughter;" vertex="1" parent="1">
          <mxGeometry x="106.11544461778473" y="530.5647840531562" width="344.4617784711389" height="21.926910299003325" as="geometry" />
        </mxCell>
        <mxCell id="ACghVnMqZbIQfi9R8P94-225" value="5555" style="strokeColor=none;fillColor=none;fontSize=10;fontColor=#596780;align=left;html=1;sketch=1;hachureGap=4;pointerEvents=0;fontFamily=Architects Daughter;fontSource=https%3A%2F%2Ffonts.googleapis.com%2Fcss%3Ffamily%3DArchitects%2BDaughter;" vertex="1" parent="1">
          <mxGeometry x="34.35257410296412" y="530.5647840531562" width="57.41029641185648" height="21.926910299003325" as="geometry" />
        </mxCell>
        <mxCell id="ACghVnMqZbIQfi9R8P94-226" value="4" style="strokeColor=none;fillColor=none;fontSize=10;fontColor=#596780;align=right;html=1;sketch=1;hachureGap=4;pointerEvents=0;fontFamily=Architects Daughter;fontSource=https%3A%2F%2Ffonts.googleapis.com%2Fcss%3Ffamily%3DArchitects%2BDaughter;" vertex="1" parent="1">
          <mxGeometry x="335.7566302652107" y="530.5647840531562" width="57.41029641185648" height="21.926910299003325" as="geometry" />
        </mxCell>
        <mxCell id="ACghVnMqZbIQfi9R8P94-227" value="" style="sketch=0;outlineConnect=0;fontColor=#232F3E;gradientColor=none;fillColor=#D45B07;strokeColor=none;dashed=0;verticalLabelPosition=bottom;verticalAlign=top;align=center;html=1;fontSize=12;fontStyle=0;aspect=fixed;pointerEvents=1;shape=mxgraph.aws4.container_registry_image;" vertex="1" parent="1">
          <mxGeometry x="551.0452418096725" y="429.7009966777409" width="19.396882187579862" height="19.396882187579862" as="geometry" />
        </mxCell>
        <mxCell id="ACghVnMqZbIQfi9R8P94-228" value="0" style="strokeColor=none;fillColor=none;fontSize=10;fontColor=#596780;align=right;html=1;sketch=1;hachureGap=4;pointerEvents=0;fontFamily=Architects Daughter;fontSource=https%3A%2F%2Ffonts.googleapis.com%2Fcss%3Ffamily%3DArchitects%2BDaughter;" vertex="1" parent="1">
          <mxGeometry x="408.9547581903276" y="431.8936877076412" width="57.41029641185648" height="21.926910299003325" as="geometry" />
        </mxCell>
        <mxCell id="ACghVnMqZbIQfi9R8P94-229" value="0" style="strokeColor=none;fillColor=none;fontSize=10;fontColor=#596780;align=right;html=1;sketch=1;hachureGap=4;pointerEvents=0;fontFamily=Architects Daughter;fontSource=https%3A%2F%2Ffonts.googleapis.com%2Fcss%3Ffamily%3DArchitects%2BDaughter;" vertex="1" parent="1">
          <mxGeometry x="408.9547581903276" y="464.78405315614623" width="57.41029641185648" height="21.926910299003325" as="geometry" />
        </mxCell>
        <mxCell id="ACghVnMqZbIQfi9R8P94-230" value="0" style="strokeColor=none;fillColor=none;fontSize=10;fontColor=#596780;align=right;html=1;sketch=1;hachureGap=4;pointerEvents=0;fontFamily=Architects Daughter;fontSource=https%3A%2F%2Ffonts.googleapis.com%2Fcss%3Ffamily%3DArchitects%2BDaughter;" vertex="1" parent="1">
          <mxGeometry x="408.9547581903276" y="497.6744186046512" width="57.41029641185648" height="21.926910299003325" as="geometry" />
        </mxCell>
        <mxCell id="ACghVnMqZbIQfi9R8P94-231" value="0" style="strokeColor=none;fillColor=none;fontSize=10;fontColor=#596780;align=right;html=1;sketch=1;hachureGap=4;pointerEvents=0;fontFamily=Architects Daughter;fontSource=https%3A%2F%2Ffonts.googleapis.com%2Fcss%3Ffamily%3DArchitects%2BDaughter;" vertex="1" parent="1">
          <mxGeometry x="408.9547581903276" y="530.5647840531562" width="57.41029641185648" height="21.926910299003325" as="geometry" />
        </mxCell>
        <mxCell id="ACghVnMqZbIQfi9R8P94-232" value="" style="html=1;shadow=0;dashed=0;shape=mxgraph.atlassian.checkbox_2;fillColor=#0057D8;strokeColor=none;fontColor=#000000;align=left;verticalAlign=middle;fontStyle=0;fontSize=12;labelPosition=right;verticalLabelPosition=middle;spacingLeft=10;sketch=0;hachureGap=4;pointerEvents=0;fontFamily=Architects Daughter;fontSource=https%3A%2F%2Ffonts.googleapis.com%2Fcss%3Ffamily%3DArchitects%2BDaughter;" vertex="1" parent="1">
          <mxGeometry x="651.5132605304213" y="452.7242524916944" width="17.223088923556947" height="13.156146179401995" as="geometry" />
        </mxCell>
        <mxCell id="ACghVnMqZbIQfi9R8P94-233" value="Promo 3" style="strokeColor=none;fillColor=none;fontSize=12;fontColor=#596780;align=left;html=1;sketch=1;hachureGap=4;pointerEvents=0;fontFamily=Architects Daughter;fontSource=https%3A%2F%2Ffonts.googleapis.com%2Fcss%3Ffamily%3DArchitects%2BDaughter;" vertex="1" parent="1">
          <mxGeometry x="106.11544461778473" y="563.4551495016611" width="344.4617784711389" height="21.926910299003325" as="geometry" />
        </mxCell>
        <mxCell id="ACghVnMqZbIQfi9R8P94-234" value="5555" style="strokeColor=none;fillColor=none;fontSize=10;fontColor=#596780;align=left;html=1;sketch=1;hachureGap=4;pointerEvents=0;fontFamily=Architects Daughter;fontSource=https%3A%2F%2Ffonts.googleapis.com%2Fcss%3Ffamily%3DArchitects%2BDaughter;" vertex="1" parent="1">
          <mxGeometry x="34.35257410296412" y="563.4551495016611" width="57.41029641185648" height="21.926910299003325" as="geometry" />
        </mxCell>
        <mxCell id="ACghVnMqZbIQfi9R8P94-235" value="5" style="strokeColor=none;fillColor=none;fontSize=10;fontColor=#596780;align=right;html=1;sketch=1;hachureGap=4;pointerEvents=0;fontFamily=Architects Daughter;fontSource=https%3A%2F%2Ffonts.googleapis.com%2Fcss%3Ffamily%3DArchitects%2BDaughter;" vertex="1" parent="1">
          <mxGeometry x="335.7566302652107" y="563.4551495016611" width="57.41029641185648" height="21.926910299003325" as="geometry" />
        </mxCell>
        <mxCell id="ACghVnMqZbIQfi9R8P94-236" value="Promo 4a" style="strokeColor=none;fillColor=none;fontSize=12;fontColor=#596780;align=left;html=1;sketch=1;hachureGap=4;pointerEvents=0;fontFamily=Architects Daughter;fontSource=https%3A%2F%2Ffonts.googleapis.com%2Fcss%3Ffamily%3DArchitects%2BDaughter;" vertex="1" parent="1">
          <mxGeometry x="106.11544461778473" y="596.3455149501661" width="344.4617784711389" height="21.926910299003325" as="geometry" />
        </mxCell>
        <mxCell id="ACghVnMqZbIQfi9R8P94-237" value="5555" style="strokeColor=none;fillColor=none;fontSize=10;fontColor=#596780;align=left;html=1;sketch=1;hachureGap=4;pointerEvents=0;fontFamily=Architects Daughter;fontSource=https%3A%2F%2Ffonts.googleapis.com%2Fcss%3Ffamily%3DArchitects%2BDaughter;" vertex="1" parent="1">
          <mxGeometry x="34.35257410296412" y="596.3455149501661" width="57.41029641185648" height="21.926910299003325" as="geometry" />
        </mxCell>
        <mxCell id="ACghVnMqZbIQfi9R8P94-238" value="6" style="strokeColor=none;fillColor=none;fontSize=10;fontColor=#596780;align=right;html=1;sketch=1;hachureGap=4;pointerEvents=0;fontFamily=Architects Daughter;fontSource=https%3A%2F%2Ffonts.googleapis.com%2Fcss%3Ffamily%3DArchitects%2BDaughter;" vertex="1" parent="1">
          <mxGeometry x="335.7566302652107" y="596.3455149501661" width="57.41029641185648" height="21.926910299003325" as="geometry" />
        </mxCell>
        <mxCell id="ACghVnMqZbIQfi9R8P94-239" value="0" style="strokeColor=none;fillColor=none;fontSize=10;fontColor=#596780;align=right;html=1;sketch=1;hachureGap=4;pointerEvents=0;fontFamily=Architects Daughter;fontSource=https%3A%2F%2Ffonts.googleapis.com%2Fcss%3Ffamily%3DArchitects%2BDaughter;" vertex="1" parent="1">
          <mxGeometry x="408.9547581903276" y="563.4551495016611" width="57.41029641185648" height="21.926910299003325" as="geometry" />
        </mxCell>
        <mxCell id="ACghVnMqZbIQfi9R8P94-240" value="0" style="strokeColor=none;fillColor=none;fontSize=10;fontColor=#596780;align=right;html=1;sketch=1;hachureGap=4;pointerEvents=0;fontFamily=Architects Daughter;fontSource=https%3A%2F%2Ffonts.googleapis.com%2Fcss%3Ffamily%3DArchitects%2BDaughter;" vertex="1" parent="1">
          <mxGeometry x="408.9547581903276" y="596.3455149501661" width="57.41029641185648" height="21.926910299003325" as="geometry" />
        </mxCell>
        <mxCell id="ACghVnMqZbIQfi9R8P94-241" value="Promo 4b" style="strokeColor=none;fillColor=none;fontSize=12;fontColor=#596780;align=left;html=1;sketch=1;hachureGap=4;pointerEvents=0;fontFamily=Architects Daughter;fontSource=https%3A%2F%2Ffonts.googleapis.com%2Fcss%3Ffamily%3DArchitects%2BDaughter;" vertex="1" parent="1">
          <mxGeometry x="106.11544461778473" y="629.2358803986712" width="344.4617784711389" height="21.926910299003325" as="geometry" />
        </mxCell>
        <mxCell id="ACghVnMqZbIQfi9R8P94-242" value="5555" style="strokeColor=none;fillColor=none;fontSize=10;fontColor=#596780;align=left;html=1;sketch=1;hachureGap=4;pointerEvents=0;fontFamily=Architects Daughter;fontSource=https%3A%2F%2Ffonts.googleapis.com%2Fcss%3Ffamily%3DArchitects%2BDaughter;" vertex="1" parent="1">
          <mxGeometry x="34.35257410296412" y="629.2358803986712" width="57.41029641185648" height="21.926910299003325" as="geometry" />
        </mxCell>
        <mxCell id="ACghVnMqZbIQfi9R8P94-243" value="6" style="strokeColor=none;fillColor=none;fontSize=10;fontColor=#596780;align=right;html=1;sketch=1;hachureGap=4;pointerEvents=0;fontFamily=Architects Daughter;fontSource=https%3A%2F%2Ffonts.googleapis.com%2Fcss%3Ffamily%3DArchitects%2BDaughter;" vertex="1" parent="1">
          <mxGeometry x="335.7566302652107" y="629.2358803986712" width="57.41029641185648" height="21.926910299003325" as="geometry" />
        </mxCell>
        <mxCell id="ACghVnMqZbIQfi9R8P94-244" value="1" style="strokeColor=none;fillColor=none;fontSize=10;fontColor=#596780;align=right;html=1;sketch=1;hachureGap=4;pointerEvents=0;fontFamily=Architects Daughter;fontSource=https%3A%2F%2Ffonts.googleapis.com%2Fcss%3Ffamily%3DArchitects%2BDaughter;" vertex="1" parent="1">
          <mxGeometry x="408.9547581903276" y="629.2358803986712" width="57.41029641185648" height="21.926910299003325" as="geometry" />
        </mxCell>
        <mxCell id="ACghVnMqZbIQfi9R8P94-245" value="" style="sketch=0;outlineConnect=0;fontColor=#232F3E;gradientColor=none;fillColor=#D45B07;strokeColor=none;dashed=0;verticalLabelPosition=bottom;verticalAlign=top;align=center;html=1;fontSize=12;fontStyle=0;aspect=fixed;pointerEvents=1;shape=mxgraph.aws4.container_registry_image;" vertex="1" parent="1">
          <mxGeometry x="551.0452418096725" y="464.78405315614623" width="19.396882187579862" height="19.396882187579862" as="geometry" />
        </mxCell>
        <mxCell id="ACghVnMqZbIQfi9R8P94-246" value="" style="sketch=0;outlineConnect=0;fontColor=#232F3E;gradientColor=none;fillColor=#D45B07;strokeColor=none;dashed=0;verticalLabelPosition=bottom;verticalAlign=top;align=center;html=1;fontSize=12;fontStyle=0;aspect=fixed;pointerEvents=1;shape=mxgraph.aws4.container_registry_image;" vertex="1" parent="1">
          <mxGeometry x="551.0452418096725" y="497.6744186046512" width="19.396882187579862" height="19.396882187579862" as="geometry" />
        </mxCell>
        <mxCell id="ACghVnMqZbIQfi9R8P94-247" value="" style="sketch=0;outlineConnect=0;fontColor=#232F3E;gradientColor=none;fillColor=#D45B07;strokeColor=none;dashed=0;verticalLabelPosition=bottom;verticalAlign=top;align=center;html=1;fontSize=12;fontStyle=0;aspect=fixed;pointerEvents=1;shape=mxgraph.aws4.container_registry_image;" vertex="1" parent="1">
          <mxGeometry x="551.0452418096725" y="530.5647840531562" width="19.396882187579862" height="19.396882187579862" as="geometry" />
        </mxCell>
        <mxCell id="ACghVnMqZbIQfi9R8P94-248" value="" style="sketch=0;outlineConnect=0;fontColor=#232F3E;gradientColor=none;fillColor=#D45B07;strokeColor=none;dashed=0;verticalLabelPosition=bottom;verticalAlign=top;align=center;html=1;fontSize=12;fontStyle=0;aspect=fixed;pointerEvents=1;shape=mxgraph.aws4.container_registry_image;" vertex="1" parent="1">
          <mxGeometry x="551.0452418096725" y="563.4551495016611" width="19.396882187579862" height="19.396882187579862" as="geometry" />
        </mxCell>
        <mxCell id="ACghVnMqZbIQfi9R8P94-249" value="" style="sketch=0;outlineConnect=0;fontColor=#232F3E;gradientColor=none;fillColor=#D45B07;strokeColor=none;dashed=0;verticalLabelPosition=bottom;verticalAlign=top;align=center;html=1;fontSize=12;fontStyle=0;aspect=fixed;pointerEvents=1;shape=mxgraph.aws4.container_registry_image;" vertex="1" parent="1">
          <mxGeometry x="551.0452418096725" y="596.3455149501661" width="19.396882187579862" height="19.396882187579862" as="geometry" />
        </mxCell>
        <mxCell id="ACghVnMqZbIQfi9R8P94-250" value="" style="sketch=0;outlineConnect=0;fontColor=#232F3E;gradientColor=none;fillColor=#D45B07;strokeColor=none;dashed=0;verticalLabelPosition=bottom;verticalAlign=top;align=center;html=1;fontSize=12;fontStyle=0;aspect=fixed;pointerEvents=1;shape=mxgraph.aws4.container_registry_image;" vertex="1" parent="1">
          <mxGeometry x="551.0452418096725" y="627.0431893687708" width="19.396882187579862" height="19.396882187579862" as="geometry" />
        </mxCell>
        <mxCell id="ACghVnMqZbIQfi9R8P94-251" value="" style="rounded=1;fillColor=#F0F2F5;strokeColor=#D8DCE3;fontColor=#000000;align=left;verticalAlign=middle;fontStyle=0;fontSize=12;labelPosition=right;verticalLabelPosition=middle;spacingLeft=10;html=1;shadow=0;dashed=0;sketch=0;hachureGap=4;pointerEvents=0;fontFamily=Architects Daughter;fontSource=https%3A%2F%2Ffonts.googleapis.com%2Fcss%3Ffamily%3DArchitects%2BDaughter;" vertex="1" parent="1">
          <mxGeometry x="651.5132605304213" y="521.7940199335549" width="17.223088923556947" height="13.156146179401995" as="geometry" />
        </mxCell>
        <mxCell id="ACghVnMqZbIQfi9R8P94-252" value="" style="rounded=1;fillColor=#F0F2F5;strokeColor=#D8DCE3;fontColor=#000000;align=left;verticalAlign=middle;fontStyle=0;fontSize=12;labelPosition=right;verticalLabelPosition=middle;spacingLeft=10;html=1;shadow=0;dashed=0;sketch=0;hachureGap=4;pointerEvents=0;fontFamily=Architects Daughter;fontSource=https%3A%2F%2Ffonts.googleapis.com%2Fcss%3Ffamily%3DArchitects%2BDaughter;" vertex="1" parent="1">
          <mxGeometry x="651.5132605304213" y="599.6345514950167" width="17.223088923556947" height="13.156146179401995" as="geometry" />
        </mxCell>
        <mxCell id="ACghVnMqZbIQfi9R8P94-253" value="" style="rounded=1;whiteSpace=wrap;html=1;fontSize=11;glass=0;strokeColor=none;gradientColor=#FFFFFF;sketch=0;opacity=40;" vertex="1" parent="1">
          <mxGeometry x="20" y="675.2823920265781" width="918.5647425897037" height="108.53820598006646" as="geometry" />
        </mxCell>
        <mxCell id="BuQ8Gx0lhF89nzugNkaQ-1" value="Add Store" style="rounded=1;fillColor=#0057D8;strokeColor=none;html=1;fontColor=#ffffff;align=center;verticalAlign=middle;fontStyle=0;fontSize=12;sketch=0;" vertex="1" parent="1">
          <mxGeometry x="40.00157566302664" y="783.8205980066446" width="123.43213728549144" height="36.179401993355484" as="geometry" />
        </mxCell>
        <mxCell id="BuQ8Gx0lhF89nzugNkaQ-2" value="" style="html=1;rounded=1;fillColor=#ffffff;strokeColor=#DFE1E5;fontSize=12;align=left;fontColor=#000000;shadow=1;arcSize=1;whiteSpace=wrap;spacing=20;verticalAlign=top;sketch=1;hachureGap=4;pointerEvents=0;fontFamily=Architects Daughter;fontSource=https%3A%2F%2Ffonts.googleapis.com%2Fcss%3Ffamily%3DArchitects%2BDaughter;glass=0;" vertex="1" parent="1">
          <mxGeometry x="139" y="607" width="467.66" height="200" as="geometry" />
        </mxCell>
        <mxCell id="BuQ8Gx0lhF89nzugNkaQ-3" value="Add" style="dashed=0;html=1;rounded=1;fillColor=#0057D8;strokeColor=none;fontSize=12;align=center;fontStyle=0;strokeWidth=2;fontColor=#ffffff;sketch=0;hachureGap=4;pointerEvents=0;fontFamily=Architects Daughter;fontSource=https%3A%2F%2Ffonts.googleapis.com%2Fcss%3Ffamily%3DArchitects%2BDaughter;glass=0;" vertex="1" parent="BuQ8Gx0lhF89nzugNkaQ-2">
          <mxGeometry width="50" height="33" relative="1" as="geometry">
            <mxPoint x="200" y="110" as="offset" />
          </mxGeometry>
        </mxCell>
        <mxCell id="BuQ8Gx0lhF89nzugNkaQ-4" value="Cancel" style="dashed=0;html=1;rounded=1;fillColor=none;strokeColor=none;fontSize=12;align=center;fontStyle=0;strokeWidth=2;fontColor=#596780;sketch=1;hachureGap=4;pointerEvents=0;fontFamily=Architects Daughter;fontSource=https%3A%2F%2Ffonts.googleapis.com%2Fcss%3Ffamily%3DArchitects%2BDaughter;glass=0;" vertex="1" parent="BuQ8Gx0lhF89nzugNkaQ-2">
          <mxGeometry width="50" height="33" relative="1" as="geometry">
            <mxPoint x="260" y="110" as="offset" />
          </mxGeometry>
        </mxCell>
        <mxCell id="BuQ8Gx0lhF89nzugNkaQ-6" value="MenuVersionID" style="rounded=1;fillColor=#253858;strokeColor=none;html=1;fontColor=#ffffff;align=left;fontSize=12;spacingLeft=10;sketch=0;hachureGap=4;pointerEvents=0;fontFamily=Architects Daughter;fontSource=https%3A%2F%2Ffonts.googleapis.com%2Fcss%3Ffamily%3DArchitects%2BDaughter;glass=0;" vertex="1" parent="BuQ8Gx0lhF89nzugNkaQ-2">
          <mxGeometry x="49.66" y="41.57142857142857" width="112.34" height="31.428571428571423" as="geometry" />
        </mxCell>
        <mxCell id="BuQ8Gx0lhF89nzugNkaQ-7" value="" style="shape=triangle;direction=south;fillColor=#ffffff;strokeColor=none;html=1;sketch=1;hachureGap=4;pointerEvents=0;fontFamily=Architects Daughter;fontSource=https%3A%2F%2Ffonts.googleapis.com%2Fcss%3Ffamily%3DArchitects%2BDaughter;fontSize=20;rounded=0;glass=0;fontColor=#FFFFFF;" vertex="1" parent="BuQ8Gx0lhF89nzugNkaQ-6">
          <mxGeometry x="1" y="0.5" width="12" height="6" relative="1" as="geometry">
            <mxPoint x="-20" y="-3" as="offset" />
          </mxGeometry>
        </mxCell>
        <mxCell id="BuQ8Gx0lhF89nzugNkaQ-19" value="0000" style="strokeWidth=1;shadow=0;dashed=0;align=center;html=1;shape=mxgraph.mockup.text.textBox;fontColor=#666666;align=left;fontSize=17;spacingLeft=4;spacingTop=-3;strokeColor=#666666;mainText=;rounded=0;glass=0;sketch=0;fillColor=#CCCCCC;gradientColor=none;" vertex="1" parent="BuQ8Gx0lhF89nzugNkaQ-2">
          <mxGeometry x="276.18999999999994" y="52.11047619047618" width="150" height="28.57142857142857" as="geometry" />
        </mxCell>
        <mxCell id="BuQ8Gx0lhF89nzugNkaQ-20" value="Store Id Nbr" style="html=1;fillColor=none;strokeColor=none;fontSize=11;align=center;fontColor=#596780;whiteSpace=wrap;sketch=1;hachureGap=4;pointerEvents=0;fontFamily=Architects Daughter;fontSource=https%3A%2F%2Ffonts.googleapis.com%2Fcss%3Ffamily%3DArchitects%2BDaughter;fontStyle=1" vertex="1" parent="BuQ8Gx0lhF89nzugNkaQ-2">
          <mxGeometry x="178.00000000000003" y="55.954761904761895" width="92.34" height="20.885714285714286" as="geometry" />
        </mxCell>
        <mxCell id="BuQ8Gx0lhF89nzugNkaQ-8" value="" style="rounded=1;fillColor=#ffffff;strokeColor=#DFE1E5;shadow=1;html=1;arcSize=4;sketch=1;hachureGap=4;pointerEvents=0;fontFamily=Architects Daughter;fontSource=https%3A%2F%2Ffonts.googleapis.com%2Fcss%3Ffamily%3DArchitects%2BDaughter;fontSize=20;glass=0;fontColor=#FFFFFF;" vertex="1" parent="BuQ8Gx0lhF89nzugNkaQ-2">
          <mxGeometry x="47.66" y="73" width="110" height="104" as="geometry" />
        </mxCell>
        <mxCell id="BuQ8Gx0lhF89nzugNkaQ-9" value="Ver 1234" style="rounded=0;fillColor=#F4F5F7;strokeColor=none;shadow=0;html=1;align=left;fontSize=12;spacingLeft=10;fontColor=#253858;resizeWidth=1;sketch=1;hachureGap=4;pointerEvents=0;fontFamily=Architects Daughter;fontSource=https%3A%2F%2Ffonts.googleapis.com%2Fcss%3Ffamily%3DArchitects%2BDaughter;glass=0;" vertex="1" parent="BuQ8Gx0lhF89nzugNkaQ-8">
          <mxGeometry width="110" height="33" relative="1" as="geometry">
            <mxPoint y="6" as="offset" />
          </mxGeometry>
        </mxCell>
        <mxCell id="BuQ8Gx0lhF89nzugNkaQ-10" value="Ver 3344" style="rounded=0;fillColor=none;strokeColor=none;shadow=0;html=1;align=left;fontSize=12;spacingLeft=10;fontColor=#253858;resizeWidth=1;sketch=1;hachureGap=4;pointerEvents=0;fontFamily=Architects Daughter;fontSource=https%3A%2F%2Ffonts.googleapis.com%2Fcss%3Ffamily%3DArchitects%2BDaughter;glass=0;" vertex="1" parent="BuQ8Gx0lhF89nzugNkaQ-8">
          <mxGeometry width="110" height="33" relative="1" as="geometry">
            <mxPoint y="39" as="offset" />
          </mxGeometry>
        </mxCell>
        <mxCell id="BuQ8Gx0lhF89nzugNkaQ-11" value="Ver sffss" style="rounded=0;fillColor=none;strokeColor=none;shadow=0;html=1;align=left;fontSize=12;spacingLeft=10;fontColor=#253858;resizeWidth=1;sketch=1;hachureGap=4;pointerEvents=0;fontFamily=Architects Daughter;fontSource=https%3A%2F%2Ffonts.googleapis.com%2Fcss%3Ffamily%3DArchitects%2BDaughter;glass=0;" vertex="1" parent="BuQ8Gx0lhF89nzugNkaQ-8">
          <mxGeometry width="110" height="33" relative="1" as="geometry">
            <mxPoint y="72" as="offset" />
          </mxGeometry>
        </mxCell>
        <mxCell id="BuQ8Gx0lhF89nzugNkaQ-13" value="" style="html=1;verticalLabelPosition=bottom;labelBackgroundColor=#ffffff;verticalAlign=top;shadow=0;dashed=0;strokeWidth=2;shape=mxgraph.ios7.misc.scroll_(vertical);fillColor=#a0a0a0;rounded=0;glass=0;sketch=0;strokeColor=#CCCCCC;fontSize=13;fontColor=#FFFFFF;" vertex="1" parent="BuQ8Gx0lhF89nzugNkaQ-8">
          <mxGeometry x="104" y="12" width="6" height="80" as="geometry" />
        </mxCell>
        <mxCell id="BuQ8Gx0lhF89nzugNkaQ-22" value="Add Store to Promotion" style="html=1;fillColor=none;strokeColor=none;fontSize=11;align=center;fontColor=#596780;whiteSpace=wrap;sketch=1;hachureGap=4;pointerEvents=0;fontFamily=Architects Daughter;fontSource=https%3A%2F%2Ffonts.googleapis.com%2Fcss%3Ffamily%3DArchitects%2BDaughter;fontStyle=1" vertex="1" parent="BuQ8Gx0lhF89nzugNkaQ-2">
          <mxGeometry x="135.19" y="7.65" width="193.81" height="20.89" as="geometry" />
        </mxCell>
        <mxCell id="BuQ8Gx0lhF89nzugNkaQ-5" value="Status" style="rounded=1;fillColor=none;strokeColor=none;html=1;fontColor=#596780;align=left;fontSize=11;spacingLeft=10;fontSize=11;sketch=1;hachureGap=4;pointerEvents=0;fontFamily=Architects Daughter;fontSource=https%3A%2F%2Ffonts.googleapis.com%2Fcss%3Ffamily%3DArchitects%2BDaughter;glass=0;" vertex="1" parent="1">
          <mxGeometry x="550" y="540" width="100" height="20" as="geometry" />
        </mxCell>
        <mxCell id="BuQ8Gx0lhF89nzugNkaQ-15" value="" style="verticalLabelPosition=bottom;shadow=0;dashed=0;align=center;html=1;verticalAlign=top;strokeWidth=1;shape=mxgraph.mockup.navigation.scrollBar;strokeColor=#999999;barPos=20;fillColor2=#99ddff;strokeColor2=none;direction=north;rounded=0;glass=0;sketch=0;fontSize=13;fontColor=#FFFFFF;fillColor=#CCCCCC;gradientColor=none;" vertex="1" parent="1">
          <mxGeometry x="938.56" y="188.5" width="20" height="581.5" as="geometry" />
        </mxCell>
      </root>
    </mxGraphModel>
  </diagram>
  <diagram id="X1K9Lp_e3iXjU4V5rqnd" name="Page-2">
    <mxGraphModel dx="1234" dy="749" grid="1" gridSize="10" guides="1" tooltips="1" connect="1" arrows="1" fold="1" page="1" pageScale="1" pageWidth="850" pageHeight="1100" math="0" shadow="0">
      <root>
        <mxCell id="0" />
        <mxCell id="1" parent="0" />
        <mxCell id="bB1kgd-d4xJyHsXjS3CH-1" value="" style="group" vertex="1" connectable="0" parent="1">
          <mxGeometry x="10" y="270" width="830" height="660" as="geometry" />
        </mxCell>
        <mxCell id="p55R7dobtkASWbK1wlCh-4" value="" style="rounded=0;whiteSpace=wrap;html=1;glass=0;sketch=0;strokeColor=#b85450;fontSize=11;fillColor=#f8cecc;" vertex="1" parent="bB1kgd-d4xJyHsXjS3CH-1">
          <mxGeometry x="12.94851794071763" y="164.45182724252493" width="608.5803432137287" height="98.67109634551495" as="geometry" />
        </mxCell>
        <mxCell id="p55R7dobtkASWbK1wlCh-3" value="" style="rounded=0;whiteSpace=wrap;html=1;glass=0;sketch=0;strokeColor=#d6b656;fontSize=11;fillColor=#fff2cc;" vertex="1" parent="bB1kgd-d4xJyHsXjS3CH-1">
          <mxGeometry x="12.94851794071763" y="98.67109634551495" width="608.5803432137287" height="65.78073089700997" as="geometry" />
        </mxCell>
        <mxCell id="p55R7dobtkASWbK1wlCh-2" value="" style="rounded=0;whiteSpace=wrap;html=1;glass=0;sketch=0;strokeColor=#d79b00;fontSize=11;fillColor=#ffe6cc;" vertex="1" parent="bB1kgd-d4xJyHsXjS3CH-1">
          <mxGeometry x="12.94851794071763" y="32.89036544850499" width="608.5803432137287" height="65.78073089700997" as="geometry" />
        </mxCell>
        <mxCell id="XZD3cZMc1_XpuEL4FHEu-1" value="Menu" style="html=1;fillColor=none;strokeColor=none;fontSize=11;align=left;fontColor=#596780;whiteSpace=wrap;sketch=1;hachureGap=4;pointerEvents=0;fontFamily=Architects Daughter;fontSource=https%3A%2F%2Ffonts.googleapis.com%2Fcss%3Ffamily%3DArchitects%2BDaughter;fontStyle=1" vertex="1" parent="bB1kgd-d4xJyHsXjS3CH-1">
          <mxGeometry x="77.69110764430579" width="194.22776911076446" height="21.926910299003325" as="geometry" />
        </mxCell>
        <mxCell id="XZD3cZMc1_XpuEL4FHEu-2" value="Store" style="html=1;fillColor=none;strokeColor=none;fontSize=11;align=left;fontColor=#596780;whiteSpace=wrap;sketch=1;hachureGap=4;pointerEvents=0;fontFamily=Architects Daughter;fontSource=https%3A%2F%2Ffonts.googleapis.com%2Fcss%3Ffamily%3DArchitects%2BDaughter;fontStyle=1" vertex="1" parent="bB1kgd-d4xJyHsXjS3CH-1">
          <mxGeometry x="12.94851794071763" width="51.79407176287052" height="21.926910299003325" as="geometry" />
        </mxCell>
        <mxCell id="XZD3cZMc1_XpuEL4FHEu-3" value="Order" style="html=1;fillColor=none;strokeColor=none;fontSize=11;align=right;fontColor=#596780;whiteSpace=wrap;sketch=1;hachureGap=4;pointerEvents=0;fontFamily=Architects Daughter;fontSource=https%3A%2F%2Ffonts.googleapis.com%2Fcss%3Ffamily%3DArchitects%2BDaughter;fontStyle=1" vertex="1" parent="bB1kgd-d4xJyHsXjS3CH-1">
          <mxGeometry x="301.7004680187208" width="51.79407176287052" height="21.926910299003325" as="geometry" />
        </mxCell>
        <mxCell id="XZD3cZMc1_XpuEL4FHEu-4" value="Menu Image" style="html=1;fillColor=none;strokeColor=none;fontSize=11;align=left;fontColor=#596780;whiteSpace=wrap;sketch=1;hachureGap=4;pointerEvents=0;fontFamily=Architects Daughter;fontSource=https%3A%2F%2Ffonts.googleapis.com%2Fcss%3Ffamily%3DArchitects%2BDaughter;fontStyle=1" vertex="1" parent="bB1kgd-d4xJyHsXjS3CH-1">
          <mxGeometry x="453.1981279251171" width="116.53666146645868" height="21.926910299003325" as="geometry" />
        </mxCell>
        <mxCell id="XZD3cZMc1_XpuEL4FHEu-5" value="Journey" style="html=1;fillColor=none;strokeColor=none;fontSize=11;align=center;fontColor=#596780;whiteSpace=wrap;sketch=1;hachureGap=4;pointerEvents=0;fontFamily=Architects Daughter;fontSource=https%3A%2F%2Ffonts.googleapis.com%2Fcss%3Ffamily%3DArchitects%2BDaughter;fontStyle=1" vertex="1" parent="bB1kgd-d4xJyHsXjS3CH-1">
          <mxGeometry x="609.8751950078005" width="116.53666146645868" height="21.926910299003325" as="geometry" />
        </mxCell>
        <mxCell id="XZD3cZMc1_XpuEL4FHEu-6" value="Select" style="html=1;fillColor=none;strokeColor=none;fontSize=11;align=center;fontColor=#596780;whiteSpace=wrap;sketch=1;hachureGap=4;pointerEvents=0;fontFamily=Architects Daughter;fontSource=https%3A%2F%2Ffonts.googleapis.com%2Fcss%3Ffamily%3DArchitects%2BDaughter;fontStyle=1" vertex="1" parent="bB1kgd-d4xJyHsXjS3CH-1">
          <mxGeometry x="556.7862714508581" width="51.79407176287052" height="21.926910299003325" as="geometry" />
        </mxCell>
        <mxCell id="XZD3cZMc1_XpuEL4FHEu-7" value="" style="shape=line;strokeWidth=2;html=1;strokeColor=#333333;resizeWidth=1;sketch=1;hachureGap=4;pointerEvents=0;fontFamily=Architects Daughter;fontSource=https%3A%2F%2Ffonts.googleapis.com%2Fcss%3Ffamily%3DArchitects%2BDaughter;fontSize=20;" vertex="1" parent="bB1kgd-d4xJyHsXjS3CH-1">
          <mxGeometry x="12.94851794071763" y="21.926910299003325" width="815.7566302652108" height="10.963455149501662" as="geometry" />
        </mxCell>
        <mxCell id="XZD3cZMc1_XpuEL4FHEu-17" value="Line Listing 1" style="strokeColor=none;fillColor=none;fontSize=12;fontColor=#596780;align=left;html=1;sketch=1;hachureGap=4;pointerEvents=0;fontFamily=Architects Daughter;fontSource=https%3A%2F%2Ffonts.googleapis.com%2Fcss%3Ffamily%3DArchitects%2BDaughter;" vertex="1" parent="bB1kgd-d4xJyHsXjS3CH-1">
          <mxGeometry x="77.69110764430579" y="36.179401993355484" width="310.76443057722315" height="21.926910299003325" as="geometry" />
        </mxCell>
        <mxCell id="XZD3cZMc1_XpuEL4FHEu-19" value="3223" style="strokeColor=none;fillColor=none;fontSize=10;fontColor=#596780;align=left;html=1;sketch=1;hachureGap=4;pointerEvents=0;fontFamily=Architects Daughter;fontSource=https%3A%2F%2Ffonts.googleapis.com%2Fcss%3Ffamily%3DArchitects%2BDaughter;" vertex="1" parent="bB1kgd-d4xJyHsXjS3CH-1">
          <mxGeometry x="12.94851794071763" y="36.179401993355484" width="51.79407176287052" height="21.926910299003325" as="geometry" />
        </mxCell>
        <mxCell id="XZD3cZMc1_XpuEL4FHEu-20" value="1" style="strokeColor=none;fillColor=none;fontSize=10;fontColor=#596780;align=right;html=1;sketch=1;hachureGap=4;pointerEvents=0;fontFamily=Architects Daughter;fontSource=https%3A%2F%2Ffonts.googleapis.com%2Fcss%3Ffamily%3DArchitects%2BDaughter;" vertex="1" parent="bB1kgd-d4xJyHsXjS3CH-1">
          <mxGeometry x="284.8673946957879" y="36.179401993355484" width="51.79407176287052" height="21.926910299003325" as="geometry" />
        </mxCell>
        <mxCell id="XZD3cZMc1_XpuEL4FHEu-25" value="Line Listing 2" style="strokeColor=none;fillColor=none;fontSize=12;fontColor=#596780;align=left;html=1;sketch=1;hachureGap=4;pointerEvents=0;fontFamily=Architects Daughter;fontSource=https%3A%2F%2Ffonts.googleapis.com%2Fcss%3Ffamily%3DArchitects%2BDaughter;" vertex="1" parent="bB1kgd-d4xJyHsXjS3CH-1">
          <mxGeometry x="77.69110764430579" y="69.06976744186048" width="310.76443057722315" height="21.926910299003325" as="geometry" />
        </mxCell>
        <mxCell id="XZD3cZMc1_XpuEL4FHEu-27" value="3223" style="strokeColor=none;fillColor=none;fontSize=10;fontColor=#596780;align=left;html=1;sketch=1;hachureGap=4;pointerEvents=0;fontFamily=Architects Daughter;fontSource=https%3A%2F%2Ffonts.googleapis.com%2Fcss%3Ffamily%3DArchitects%2BDaughter;" vertex="1" parent="bB1kgd-d4xJyHsXjS3CH-1">
          <mxGeometry x="12.94851794071763" y="69.06976744186048" width="51.79407176287052" height="21.926910299003325" as="geometry" />
        </mxCell>
        <mxCell id="XZD3cZMc1_XpuEL4FHEu-28" value="2" style="strokeColor=none;fillColor=none;fontSize=10;fontColor=#596780;align=right;html=1;sketch=1;hachureGap=4;pointerEvents=0;fontFamily=Architects Daughter;fontSource=https%3A%2F%2Ffonts.googleapis.com%2Fcss%3Ffamily%3DArchitects%2BDaughter;" vertex="1" parent="bB1kgd-d4xJyHsXjS3CH-1">
          <mxGeometry x="284.8673946957879" y="69.06976744186048" width="51.79407176287052" height="21.926910299003325" as="geometry" />
        </mxCell>
        <mxCell id="XZD3cZMc1_XpuEL4FHEu-33" value="Promo 1" style="strokeColor=none;fillColor=none;fontSize=12;fontColor=#596780;align=left;html=1;sketch=1;hachureGap=4;pointerEvents=0;fontFamily=Architects Daughter;fontSource=https%3A%2F%2Ffonts.googleapis.com%2Fcss%3Ffamily%3DArchitects%2BDaughter;" vertex="1" parent="bB1kgd-d4xJyHsXjS3CH-1">
          <mxGeometry x="77.69110764430579" y="101.96013289036544" width="310.76443057722315" height="21.926910299003325" as="geometry" />
        </mxCell>
        <mxCell id="XZD3cZMc1_XpuEL4FHEu-35" value="3223" style="strokeColor=none;fillColor=none;fontSize=10;fontColor=#596780;align=left;html=1;sketch=1;hachureGap=4;pointerEvents=0;fontFamily=Architects Daughter;fontSource=https%3A%2F%2Ffonts.googleapis.com%2Fcss%3Ffamily%3DArchitects%2BDaughter;" vertex="1" parent="bB1kgd-d4xJyHsXjS3CH-1">
          <mxGeometry x="12.94851794071763" y="101.96013289036544" width="51.79407176287052" height="21.926910299003325" as="geometry" />
        </mxCell>
        <mxCell id="XZD3cZMc1_XpuEL4FHEu-36" value="3" style="strokeColor=none;fillColor=none;fontSize=10;fontColor=#596780;align=right;html=1;sketch=1;hachureGap=4;pointerEvents=0;fontFamily=Architects Daughter;fontSource=https%3A%2F%2Ffonts.googleapis.com%2Fcss%3Ffamily%3DArchitects%2BDaughter;" vertex="1" parent="bB1kgd-d4xJyHsXjS3CH-1">
          <mxGeometry x="284.8673946957879" y="101.96013289036544" width="51.79407176287052" height="21.926910299003325" as="geometry" />
        </mxCell>
        <mxCell id="XZD3cZMc1_XpuEL4FHEu-41" value="Promo 2" style="strokeColor=none;fillColor=none;fontSize=12;fontColor=#596780;align=left;html=1;sketch=1;hachureGap=4;pointerEvents=0;fontFamily=Architects Daughter;fontSource=https%3A%2F%2Ffonts.googleapis.com%2Fcss%3Ffamily%3DArchitects%2BDaughter;" vertex="1" parent="bB1kgd-d4xJyHsXjS3CH-1">
          <mxGeometry x="77.69110764430579" y="134.85049833887044" width="310.76443057722315" height="21.926910299003325" as="geometry" />
        </mxCell>
        <mxCell id="XZD3cZMc1_XpuEL4FHEu-43" value="3223" style="strokeColor=none;fillColor=none;fontSize=10;fontColor=#596780;align=left;html=1;sketch=1;hachureGap=4;pointerEvents=0;fontFamily=Architects Daughter;fontSource=https%3A%2F%2Ffonts.googleapis.com%2Fcss%3Ffamily%3DArchitects%2BDaughter;" vertex="1" parent="bB1kgd-d4xJyHsXjS3CH-1">
          <mxGeometry x="12.94851794071763" y="134.85049833887044" width="51.79407176287052" height="21.926910299003325" as="geometry" />
        </mxCell>
        <mxCell id="XZD3cZMc1_XpuEL4FHEu-44" value="4" style="strokeColor=none;fillColor=none;fontSize=10;fontColor=#596780;align=right;html=1;sketch=1;hachureGap=4;pointerEvents=0;fontFamily=Architects Daughter;fontSource=https%3A%2F%2Ffonts.googleapis.com%2Fcss%3Ffamily%3DArchitects%2BDaughter;" vertex="1" parent="bB1kgd-d4xJyHsXjS3CH-1">
          <mxGeometry x="284.8673946957879" y="134.85049833887044" width="51.79407176287052" height="21.926910299003325" as="geometry" />
        </mxCell>
        <mxCell id="XZD3cZMc1_XpuEL4FHEu-53" value="" style="sketch=0;outlineConnect=0;fontColor=#232F3E;gradientColor=none;fillColor=#D45B07;strokeColor=none;dashed=0;verticalLabelPosition=bottom;verticalAlign=top;align=center;html=1;fontSize=12;fontStyle=0;aspect=fixed;pointerEvents=1;shape=mxgraph.aws4.container_registry_image;" vertex="1" parent="bB1kgd-d4xJyHsXjS3CH-1">
          <mxGeometry x="479.09516380655236" y="33.98671096345515" width="21.926910299003325" height="21.926910299003325" as="geometry" />
        </mxCell>
        <mxCell id="XZD3cZMc1_XpuEL4FHEu-55" value="&lt;font style=&quot;font-size: 11px;&quot;&gt;Left&lt;/font&gt;" style="rounded=1;fillColor=#F1F2F4;strokeColor=none;html=1;fontColor=#596780;align=left;fontSize=12;spacingLeft=10;sketch=1;hachureGap=4;pointerEvents=0;fontFamily=Architects Daughter;fontSource=https%3A%2F%2Ffonts.googleapis.com%2Fcss%3Ffamily%3DArchitects%2BDaughter;" vertex="1" parent="bB1kgd-d4xJyHsXjS3CH-1">
          <mxGeometry x="635.7722308892357" y="28.50498338870432" width="77.69110764430579" height="32.89036544850499" as="geometry" />
        </mxCell>
        <mxCell id="XZD3cZMc1_XpuEL4FHEu-56" value="" style="shape=triangle;direction=south;fillColor=#596780;strokeColor=none;html=1;sketch=0;hachureGap=4;pointerEvents=0;fontFamily=Architects Daughter;fontSource=https%3A%2F%2Ffonts.googleapis.com%2Fcss%3Ffamily%3DArchitects%2BDaughter;fontSize=20;" vertex="1" parent="XZD3cZMc1_XpuEL4FHEu-55">
          <mxGeometry x="1" y="0.5" width="12" height="6" relative="1" as="geometry">
            <mxPoint x="-2" y="-3" as="offset" />
          </mxGeometry>
        </mxCell>
        <mxCell id="XZD3cZMc1_XpuEL4FHEu-63" value="Transition" style="html=1;fillColor=none;strokeColor=none;fontSize=11;align=left;fontColor=#596780;whiteSpace=wrap;sketch=1;hachureGap=4;pointerEvents=0;fontFamily=Architects Daughter;fontSource=https%3A%2F%2Ffonts.googleapis.com%2Fcss%3Ffamily%3DArchitects%2BDaughter;fontStyle=1" vertex="1" parent="bB1kgd-d4xJyHsXjS3CH-1">
          <mxGeometry x="365.1482059282372" width="116.53666146645868" height="21.926910299003325" as="geometry" />
        </mxCell>
        <mxCell id="XZD3cZMc1_XpuEL4FHEu-68" value="0" style="strokeColor=none;fillColor=none;fontSize=10;fontColor=#596780;align=right;html=1;sketch=1;hachureGap=4;pointerEvents=0;fontFamily=Architects Daughter;fontSource=https%3A%2F%2Ffonts.googleapis.com%2Fcss%3Ffamily%3DArchitects%2BDaughter;" vertex="1" parent="bB1kgd-d4xJyHsXjS3CH-1">
          <mxGeometry x="350.90483619344775" y="36.179401993355484" width="51.79407176287052" height="21.926910299003325" as="geometry" />
        </mxCell>
        <mxCell id="XZD3cZMc1_XpuEL4FHEu-69" value="0" style="strokeColor=none;fillColor=none;fontSize=10;fontColor=#596780;align=right;html=1;sketch=1;hachureGap=4;pointerEvents=0;fontFamily=Architects Daughter;fontSource=https%3A%2F%2Ffonts.googleapis.com%2Fcss%3Ffamily%3DArchitects%2BDaughter;" vertex="1" parent="bB1kgd-d4xJyHsXjS3CH-1">
          <mxGeometry x="350.90483619344775" y="69.06976744186048" width="51.79407176287052" height="21.926910299003325" as="geometry" />
        </mxCell>
        <mxCell id="XZD3cZMc1_XpuEL4FHEu-70" value="0" style="strokeColor=none;fillColor=none;fontSize=10;fontColor=#596780;align=right;html=1;sketch=1;hachureGap=4;pointerEvents=0;fontFamily=Architects Daughter;fontSource=https%3A%2F%2Ffonts.googleapis.com%2Fcss%3Ffamily%3DArchitects%2BDaughter;" vertex="1" parent="bB1kgd-d4xJyHsXjS3CH-1">
          <mxGeometry x="350.90483619344775" y="101.96013289036544" width="51.79407176287052" height="21.926910299003325" as="geometry" />
        </mxCell>
        <mxCell id="XZD3cZMc1_XpuEL4FHEu-71" value="0" style="strokeColor=none;fillColor=none;fontSize=10;fontColor=#596780;align=right;html=1;sketch=1;hachureGap=4;pointerEvents=0;fontFamily=Architects Daughter;fontSource=https%3A%2F%2Ffonts.googleapis.com%2Fcss%3Ffamily%3DArchitects%2BDaughter;" vertex="1" parent="bB1kgd-d4xJyHsXjS3CH-1">
          <mxGeometry x="350.90483619344775" y="134.85049833887044" width="51.79407176287052" height="21.926910299003325" as="geometry" />
        </mxCell>
        <mxCell id="XZD3cZMc1_XpuEL4FHEu-74" value="" style="html=1;shadow=0;dashed=0;shape=mxgraph.atlassian.checkbox_2;fillColor=#0057D8;strokeColor=none;fontColor=#000000;align=left;verticalAlign=middle;fontStyle=0;fontSize=12;labelPosition=right;verticalLabelPosition=middle;spacingLeft=10;sketch=0;hachureGap=4;pointerEvents=0;fontFamily=Architects Daughter;fontSource=https%3A%2F%2Ffonts.googleapis.com%2Fcss%3Ffamily%3DArchitects%2BDaughter;" vertex="1" parent="bB1kgd-d4xJyHsXjS3CH-1">
          <mxGeometry x="569.7347893915758" y="57.00996677740864" width="15.538221528861158" height="13.156146179401995" as="geometry" />
        </mxCell>
        <mxCell id="XZD3cZMc1_XpuEL4FHEu-79" value="Promo 3" style="strokeColor=none;fillColor=none;fontSize=12;fontColor=#596780;align=left;html=1;sketch=1;hachureGap=4;pointerEvents=0;fontFamily=Architects Daughter;fontSource=https%3A%2F%2Ffonts.googleapis.com%2Fcss%3Ffamily%3DArchitects%2BDaughter;" vertex="1" parent="bB1kgd-d4xJyHsXjS3CH-1">
          <mxGeometry x="77.69110764430579" y="167.74086378737545" width="310.76443057722315" height="21.926910299003325" as="geometry" />
        </mxCell>
        <mxCell id="XZD3cZMc1_XpuEL4FHEu-81" value="3223" style="strokeColor=none;fillColor=none;fontSize=10;fontColor=#596780;align=left;html=1;sketch=1;hachureGap=4;pointerEvents=0;fontFamily=Architects Daughter;fontSource=https%3A%2F%2Ffonts.googleapis.com%2Fcss%3Ffamily%3DArchitects%2BDaughter;" vertex="1" parent="bB1kgd-d4xJyHsXjS3CH-1">
          <mxGeometry x="12.94851794071763" y="167.74086378737545" width="51.79407176287052" height="21.926910299003325" as="geometry" />
        </mxCell>
        <mxCell id="XZD3cZMc1_XpuEL4FHEu-82" value="5" style="strokeColor=none;fillColor=none;fontSize=10;fontColor=#596780;align=right;html=1;sketch=1;hachureGap=4;pointerEvents=0;fontFamily=Architects Daughter;fontSource=https%3A%2F%2Ffonts.googleapis.com%2Fcss%3Ffamily%3DArchitects%2BDaughter;" vertex="1" parent="bB1kgd-d4xJyHsXjS3CH-1">
          <mxGeometry x="284.8673946957879" y="167.74086378737545" width="51.79407176287052" height="21.926910299003325" as="geometry" />
        </mxCell>
        <mxCell id="XZD3cZMc1_XpuEL4FHEu-83" value="Promo 4a" style="strokeColor=none;fillColor=none;fontSize=12;fontColor=#596780;align=left;html=1;sketch=1;hachureGap=4;pointerEvents=0;fontFamily=Architects Daughter;fontSource=https%3A%2F%2Ffonts.googleapis.com%2Fcss%3Ffamily%3DArchitects%2BDaughter;" vertex="1" parent="bB1kgd-d4xJyHsXjS3CH-1">
          <mxGeometry x="77.69110764430579" y="200.63122923588043" width="310.76443057722315" height="21.926910299003325" as="geometry" />
        </mxCell>
        <mxCell id="XZD3cZMc1_XpuEL4FHEu-85" value="3223" style="strokeColor=none;fillColor=none;fontSize=10;fontColor=#596780;align=left;html=1;sketch=1;hachureGap=4;pointerEvents=0;fontFamily=Architects Daughter;fontSource=https%3A%2F%2Ffonts.googleapis.com%2Fcss%3Ffamily%3DArchitects%2BDaughter;" vertex="1" parent="bB1kgd-d4xJyHsXjS3CH-1">
          <mxGeometry x="12.94851794071763" y="200.63122923588043" width="51.79407176287052" height="21.926910299003325" as="geometry" />
        </mxCell>
        <mxCell id="XZD3cZMc1_XpuEL4FHEu-86" value="6" style="strokeColor=none;fillColor=none;fontSize=10;fontColor=#596780;align=right;html=1;sketch=1;hachureGap=4;pointerEvents=0;fontFamily=Architects Daughter;fontSource=https%3A%2F%2Ffonts.googleapis.com%2Fcss%3Ffamily%3DArchitects%2BDaughter;" vertex="1" parent="bB1kgd-d4xJyHsXjS3CH-1">
          <mxGeometry x="284.8673946957879" y="200.63122923588043" width="51.79407176287052" height="21.926910299003325" as="geometry" />
        </mxCell>
        <mxCell id="XZD3cZMc1_XpuEL4FHEu-87" value="0" style="strokeColor=none;fillColor=none;fontSize=10;fontColor=#596780;align=right;html=1;sketch=1;hachureGap=4;pointerEvents=0;fontFamily=Architects Daughter;fontSource=https%3A%2F%2Ffonts.googleapis.com%2Fcss%3Ffamily%3DArchitects%2BDaughter;" vertex="1" parent="bB1kgd-d4xJyHsXjS3CH-1">
          <mxGeometry x="350.90483619344775" y="167.74086378737545" width="51.79407176287052" height="21.926910299003325" as="geometry" />
        </mxCell>
        <mxCell id="XZD3cZMc1_XpuEL4FHEu-88" value="0" style="strokeColor=none;fillColor=none;fontSize=10;fontColor=#596780;align=right;html=1;sketch=1;hachureGap=4;pointerEvents=0;fontFamily=Architects Daughter;fontSource=https%3A%2F%2Ffonts.googleapis.com%2Fcss%3Ffamily%3DArchitects%2BDaughter;" vertex="1" parent="bB1kgd-d4xJyHsXjS3CH-1">
          <mxGeometry x="350.90483619344775" y="200.63122923588043" width="51.79407176287052" height="21.926910299003325" as="geometry" />
        </mxCell>
        <mxCell id="XZD3cZMc1_XpuEL4FHEu-89" value="Promo 4b" style="strokeColor=none;fillColor=none;fontSize=12;fontColor=#596780;align=left;html=1;sketch=1;hachureGap=4;pointerEvents=0;fontFamily=Architects Daughter;fontSource=https%3A%2F%2Ffonts.googleapis.com%2Fcss%3Ffamily%3DArchitects%2BDaughter;" vertex="1" parent="bB1kgd-d4xJyHsXjS3CH-1">
          <mxGeometry x="77.69110764430579" y="233.5215946843854" width="310.76443057722315" height="21.926910299003325" as="geometry" />
        </mxCell>
        <mxCell id="XZD3cZMc1_XpuEL4FHEu-91" value="3223" style="strokeColor=none;fillColor=none;fontSize=10;fontColor=#596780;align=left;html=1;sketch=1;hachureGap=4;pointerEvents=0;fontFamily=Architects Daughter;fontSource=https%3A%2F%2Ffonts.googleapis.com%2Fcss%3Ffamily%3DArchitects%2BDaughter;" vertex="1" parent="bB1kgd-d4xJyHsXjS3CH-1">
          <mxGeometry x="12.94851794071763" y="233.5215946843854" width="51.79407176287052" height="21.926910299003325" as="geometry" />
        </mxCell>
        <mxCell id="XZD3cZMc1_XpuEL4FHEu-92" value="6" style="strokeColor=none;fillColor=none;fontSize=10;fontColor=#596780;align=right;html=1;sketch=1;hachureGap=4;pointerEvents=0;fontFamily=Architects Daughter;fontSource=https%3A%2F%2Ffonts.googleapis.com%2Fcss%3Ffamily%3DArchitects%2BDaughter;" vertex="1" parent="bB1kgd-d4xJyHsXjS3CH-1">
          <mxGeometry x="284.8673946957879" y="233.5215946843854" width="51.79407176287052" height="21.926910299003325" as="geometry" />
        </mxCell>
        <mxCell id="XZD3cZMc1_XpuEL4FHEu-93" value="1" style="strokeColor=none;fillColor=none;fontSize=10;fontColor=#596780;align=right;html=1;sketch=1;hachureGap=4;pointerEvents=0;fontFamily=Architects Daughter;fontSource=https%3A%2F%2Ffonts.googleapis.com%2Fcss%3Ffamily%3DArchitects%2BDaughter;" vertex="1" parent="bB1kgd-d4xJyHsXjS3CH-1">
          <mxGeometry x="350.90483619344775" y="233.5215946843854" width="51.79407176287052" height="21.926910299003325" as="geometry" />
        </mxCell>
        <mxCell id="XZD3cZMc1_XpuEL4FHEu-95" value="Select all for store" style="html=1;fillColor=none;strokeColor=none;fontSize=11;align=center;fontColor=#596780;whiteSpace=wrap;sketch=1;hachureGap=4;pointerEvents=0;fontFamily=Architects Daughter;fontSource=https%3A%2F%2Ffonts.googleapis.com%2Fcss%3Ffamily%3DArchitects%2BDaughter;fontStyle=1" vertex="1" parent="bB1kgd-d4xJyHsXjS3CH-1">
          <mxGeometry x="738.065522620905" width="90.63962558502341" height="21.926910299003325" as="geometry" />
        </mxCell>
        <mxCell id="XZD3cZMc1_XpuEL4FHEu-97" value="" style="rounded=1;fillColor=#F0F2F5;strokeColor=#D8DCE3;fontColor=#000000;align=left;verticalAlign=middle;fontStyle=0;fontSize=12;labelPosition=right;verticalLabelPosition=middle;spacingLeft=10;html=1;shadow=0;dashed=0;sketch=0;hachureGap=4;pointerEvents=0;fontFamily=Architects Daughter;fontSource=https%3A%2F%2Ffonts.googleapis.com%2Fcss%3Ffamily%3DArchitects%2BDaughter;arcSize=0;" vertex="1" parent="bB1kgd-d4xJyHsXjS3CH-1">
          <mxGeometry x="776.9110764430578" y="38.372093023255815" width="15.538221528861158" height="13.156146179401995" as="geometry" />
        </mxCell>
        <mxCell id="XZD3cZMc1_XpuEL4FHEu-98" value="" style="sketch=0;outlineConnect=0;fontColor=#232F3E;gradientColor=none;fillColor=#D45B07;strokeColor=none;dashed=0;verticalLabelPosition=bottom;verticalAlign=top;align=center;html=1;fontSize=12;fontStyle=0;aspect=fixed;pointerEvents=1;shape=mxgraph.aws4.container_registry_image;" vertex="1" parent="bB1kgd-d4xJyHsXjS3CH-1">
          <mxGeometry x="479.09516380655236" y="69.06976744186048" width="21.926910299003325" height="21.926910299003325" as="geometry" />
        </mxCell>
        <mxCell id="XZD3cZMc1_XpuEL4FHEu-99" value="" style="sketch=0;outlineConnect=0;fontColor=#232F3E;gradientColor=none;fillColor=#D45B07;strokeColor=none;dashed=0;verticalLabelPosition=bottom;verticalAlign=top;align=center;html=1;fontSize=12;fontStyle=0;aspect=fixed;pointerEvents=1;shape=mxgraph.aws4.container_registry_image;" vertex="1" parent="bB1kgd-d4xJyHsXjS3CH-1">
          <mxGeometry x="479.09516380655236" y="101.96013289036544" width="21.926910299003325" height="21.926910299003325" as="geometry" />
        </mxCell>
        <mxCell id="XZD3cZMc1_XpuEL4FHEu-100" value="" style="sketch=0;outlineConnect=0;fontColor=#232F3E;gradientColor=none;fillColor=#D45B07;strokeColor=none;dashed=0;verticalLabelPosition=bottom;verticalAlign=top;align=center;html=1;fontSize=12;fontStyle=0;aspect=fixed;pointerEvents=1;shape=mxgraph.aws4.container_registry_image;" vertex="1" parent="bB1kgd-d4xJyHsXjS3CH-1">
          <mxGeometry x="479.09516380655236" y="134.85049833887044" width="21.926910299003325" height="21.926910299003325" as="geometry" />
        </mxCell>
        <mxCell id="XZD3cZMc1_XpuEL4FHEu-101" value="" style="sketch=0;outlineConnect=0;fontColor=#232F3E;gradientColor=none;fillColor=#D45B07;strokeColor=none;dashed=0;verticalLabelPosition=bottom;verticalAlign=top;align=center;html=1;fontSize=12;fontStyle=0;aspect=fixed;pointerEvents=1;shape=mxgraph.aws4.container_registry_image;" vertex="1" parent="bB1kgd-d4xJyHsXjS3CH-1">
          <mxGeometry x="479.09516380655236" y="167.74086378737545" width="21.926910299003325" height="21.926910299003325" as="geometry" />
        </mxCell>
        <mxCell id="XZD3cZMc1_XpuEL4FHEu-102" value="" style="sketch=0;outlineConnect=0;fontColor=#232F3E;gradientColor=none;fillColor=#D45B07;strokeColor=none;dashed=0;verticalLabelPosition=bottom;verticalAlign=top;align=center;html=1;fontSize=12;fontStyle=0;aspect=fixed;pointerEvents=1;shape=mxgraph.aws4.container_registry_image;" vertex="1" parent="bB1kgd-d4xJyHsXjS3CH-1">
          <mxGeometry x="479.09516380655236" y="200.63122923588043" width="21.926910299003325" height="21.926910299003325" as="geometry" />
        </mxCell>
        <mxCell id="XZD3cZMc1_XpuEL4FHEu-103" value="" style="sketch=0;outlineConnect=0;fontColor=#232F3E;gradientColor=none;fillColor=#D45B07;strokeColor=none;dashed=0;verticalLabelPosition=bottom;verticalAlign=top;align=center;html=1;fontSize=12;fontStyle=0;aspect=fixed;pointerEvents=1;shape=mxgraph.aws4.container_registry_image;" vertex="1" parent="bB1kgd-d4xJyHsXjS3CH-1">
          <mxGeometry x="479.09516380655236" y="231.32890365448506" width="21.926910299003325" height="21.926910299003325" as="geometry" />
        </mxCell>
        <mxCell id="XZD3cZMc1_XpuEL4FHEu-115" value="" style="rounded=1;fillColor=#F0F2F5;strokeColor=#D8DCE3;fontColor=#000000;align=left;verticalAlign=middle;fontStyle=0;fontSize=12;labelPosition=right;verticalLabelPosition=middle;spacingLeft=10;html=1;shadow=0;dashed=0;sketch=0;hachureGap=4;pointerEvents=0;fontFamily=Architects Daughter;fontSource=https%3A%2F%2Ffonts.googleapis.com%2Fcss%3Ffamily%3DArchitects%2BDaughter;" vertex="1" parent="bB1kgd-d4xJyHsXjS3CH-1">
          <mxGeometry x="569.7347893915758" y="126.07973421926911" width="15.538221528861158" height="13.156146179401995" as="geometry" />
        </mxCell>
        <mxCell id="XZD3cZMc1_XpuEL4FHEu-116" value="" style="rounded=1;fillColor=#F0F2F5;strokeColor=#D8DCE3;fontColor=#000000;align=left;verticalAlign=middle;fontStyle=0;fontSize=12;labelPosition=right;verticalLabelPosition=middle;spacingLeft=10;html=1;shadow=0;dashed=0;sketch=0;hachureGap=4;pointerEvents=0;fontFamily=Architects Daughter;fontSource=https%3A%2F%2Ffonts.googleapis.com%2Fcss%3Ffamily%3DArchitects%2BDaughter;" vertex="1" parent="bB1kgd-d4xJyHsXjS3CH-1">
          <mxGeometry x="569.7347893915758" y="203.9202657807309" width="15.538221528861158" height="13.156146179401995" as="geometry" />
        </mxCell>
        <mxCell id="XZD3cZMc1_XpuEL4FHEu-120" value="" style="shape=line;strokeWidth=2;html=1;strokeColor=#CCCCCC;resizeWidth=1;sketch=1;hachureGap=4;pointerEvents=0;fontFamily=Architects Daughter;fontSource=https%3A%2F%2Ffonts.googleapis.com%2Fcss%3Ffamily%3DArchitects%2BDaughter;fontSize=20;" vertex="1" parent="bB1kgd-d4xJyHsXjS3CH-1">
          <mxGeometry x="12.94851794071763" y="260.93023255813955" width="815.7566302652108" height="10.963455149501662" as="geometry" />
        </mxCell>
        <mxCell id="XZD3cZMc1_XpuEL4FHEu-138" value="" style="shape=triangle;direction=south;fillColor=#596780;strokeColor=none;html=1;sketch=0;hachureGap=4;pointerEvents=0;fontFamily=Architects Daughter;fontSource=https%3A%2F%2Ffonts.googleapis.com%2Fcss%3Ffamily%3DArchitects%2BDaughter;fontSize=20;" vertex="1" parent="bB1kgd-d4xJyHsXjS3CH-1">
          <mxGeometry x="712.1684867394697" y="282.8571428571429" width="15.538221528861158" height="6.578073089700998" as="geometry" />
        </mxCell>
        <mxCell id="XZD3cZMc1_XpuEL4FHEu-161" value="" style="rounded=1;fillColor=#F0F2F5;strokeColor=#D8DCE3;fontColor=#000000;align=left;verticalAlign=middle;fontStyle=0;fontSize=12;labelPosition=right;verticalLabelPosition=middle;spacingLeft=10;html=1;shadow=0;dashed=0;sketch=0;hachureGap=4;pointerEvents=0;fontFamily=Architects Daughter;fontSource=https%3A%2F%2Ffonts.googleapis.com%2Fcss%3Ffamily%3DArchitects%2BDaughter;arcSize=0;" vertex="1" parent="bB1kgd-d4xJyHsXjS3CH-1">
          <mxGeometry x="778.2059282371296" y="279.5681063122924" width="15.538221528861158" height="13.156146179401995" as="geometry" />
        </mxCell>
        <mxCell id="XZD3cZMc1_XpuEL4FHEu-172" value="" style="shape=line;strokeWidth=2;html=1;strokeColor=#CCCCCC;resizeWidth=1;sketch=1;hachureGap=4;pointerEvents=0;fontFamily=Architects Daughter;fontSource=https%3A%2F%2Ffonts.googleapis.com%2Fcss%3Ffamily%3DArchitects%2BDaughter;fontSize=20;" vertex="1" parent="bB1kgd-d4xJyHsXjS3CH-1">
          <mxGeometry x="14.243369734789395" y="502.1262458471761" width="815.7566302652108" height="10.963455149501662" as="geometry" />
        </mxCell>
        <mxCell id="XZD3cZMc1_XpuEL4FHEu-174" value="Line Listing 1" style="strokeColor=none;fillColor=none;fontSize=12;fontColor=#596780;align=left;html=1;sketch=1;hachureGap=4;pointerEvents=0;fontFamily=Architects Daughter;fontSource=https%3A%2F%2Ffonts.googleapis.com%2Fcss%3Ffamily%3DArchitects%2BDaughter;" vertex="1" parent="bB1kgd-d4xJyHsXjS3CH-1">
          <mxGeometry x="78.98595943837755" y="518.5714285714286" width="310.76443057722315" height="21.926910299003325" as="geometry" />
        </mxCell>
        <mxCell id="XZD3cZMc1_XpuEL4FHEu-175" value="" style="shape=mxgraph.mockup.misc.progressBar;fillColor=none;strokeColor=none;fillColor2=#F2F2F2;barPos=80;sketch=1;hachureGap=4;pointerEvents=0;fontFamily=Architects Daughter;fontSource=https%3A%2F%2Ffonts.googleapis.com%2Fcss%3Ffamily%3DArchitects%2BDaughter;fontSize=20;" vertex="1" parent="bB1kgd-d4xJyHsXjS3CH-1">
          <mxGeometry x="234.3681747269891" y="521.8604651162791" width="103.58814352574105" height="10.963455149501662" as="geometry" />
        </mxCell>
        <mxCell id="XZD3cZMc1_XpuEL4FHEu-176" value="3344" style="strokeColor=none;fillColor=none;fontSize=10;fontColor=#596780;align=left;html=1;sketch=1;hachureGap=4;pointerEvents=0;fontFamily=Architects Daughter;fontSource=https%3A%2F%2Ffonts.googleapis.com%2Fcss%3Ffamily%3DArchitects%2BDaughter;" vertex="1" parent="bB1kgd-d4xJyHsXjS3CH-1">
          <mxGeometry x="14.243369734789395" y="518.5714285714286" width="51.79407176287052" height="21.926910299003325" as="geometry" />
        </mxCell>
        <mxCell id="XZD3cZMc1_XpuEL4FHEu-177" value="1" style="strokeColor=none;fillColor=none;fontSize=10;fontColor=#596780;align=right;html=1;sketch=1;hachureGap=4;pointerEvents=0;fontFamily=Architects Daughter;fontSource=https%3A%2F%2Ffonts.googleapis.com%2Fcss%3Ffamily%3DArchitects%2BDaughter;" vertex="1" parent="bB1kgd-d4xJyHsXjS3CH-1">
          <mxGeometry x="286.1622464898596" y="518.5714285714286" width="51.79407176287052" height="21.926910299003325" as="geometry" />
        </mxCell>
        <mxCell id="XZD3cZMc1_XpuEL4FHEu-178" value="Line Listing 2" style="strokeColor=none;fillColor=none;fontSize=12;fontColor=#596780;align=left;html=1;sketch=1;hachureGap=4;pointerEvents=0;fontFamily=Architects Daughter;fontSource=https%3A%2F%2Ffonts.googleapis.com%2Fcss%3Ffamily%3DArchitects%2BDaughter;" vertex="1" parent="bB1kgd-d4xJyHsXjS3CH-1">
          <mxGeometry x="78.98595943837755" y="551.4617940199336" width="310.76443057722315" height="21.926910299003325" as="geometry" />
        </mxCell>
        <mxCell id="XZD3cZMc1_XpuEL4FHEu-179" value="" style="shape=mxgraph.mockup.misc.progressBar;fillColor=none;strokeColor=none;fillColor2=#F2F2F2;barPos=80;sketch=1;hachureGap=4;pointerEvents=0;fontFamily=Architects Daughter;fontSource=https%3A%2F%2Ffonts.googleapis.com%2Fcss%3Ffamily%3DArchitects%2BDaughter;fontSize=20;" vertex="1" parent="bB1kgd-d4xJyHsXjS3CH-1">
          <mxGeometry x="234.3681747269891" y="554.7508305647841" width="103.58814352574105" height="10.963455149501662" as="geometry" />
        </mxCell>
        <mxCell id="XZD3cZMc1_XpuEL4FHEu-180" value="3344" style="strokeColor=none;fillColor=none;fontSize=10;fontColor=#596780;align=left;html=1;sketch=1;hachureGap=4;pointerEvents=0;fontFamily=Architects Daughter;fontSource=https%3A%2F%2Ffonts.googleapis.com%2Fcss%3Ffamily%3DArchitects%2BDaughter;" vertex="1" parent="bB1kgd-d4xJyHsXjS3CH-1">
          <mxGeometry x="14.243369734789395" y="551.4617940199336" width="51.79407176287052" height="21.926910299003325" as="geometry" />
        </mxCell>
        <mxCell id="XZD3cZMc1_XpuEL4FHEu-181" value="2" style="strokeColor=none;fillColor=none;fontSize=10;fontColor=#596780;align=right;html=1;sketch=1;hachureGap=4;pointerEvents=0;fontFamily=Architects Daughter;fontSource=https%3A%2F%2Ffonts.googleapis.com%2Fcss%3Ffamily%3DArchitects%2BDaughter;" vertex="1" parent="bB1kgd-d4xJyHsXjS3CH-1">
          <mxGeometry x="286.1622464898596" y="551.4617940199336" width="51.79407176287052" height="21.926910299003325" as="geometry" />
        </mxCell>
        <mxCell id="XZD3cZMc1_XpuEL4FHEu-182" value="Promo 1" style="strokeColor=none;fillColor=none;fontSize=12;fontColor=#596780;align=left;html=1;sketch=1;hachureGap=4;pointerEvents=0;fontFamily=Architects Daughter;fontSource=https%3A%2F%2Ffonts.googleapis.com%2Fcss%3Ffamily%3DArchitects%2BDaughter;" vertex="1" parent="bB1kgd-d4xJyHsXjS3CH-1">
          <mxGeometry x="78.98595943837755" y="584.3521594684386" width="310.76443057722315" height="21.926910299003325" as="geometry" />
        </mxCell>
        <mxCell id="XZD3cZMc1_XpuEL4FHEu-183" value="" style="shape=mxgraph.mockup.misc.progressBar;fillColor=none;strokeColor=none;fillColor2=#F2F2F2;barPos=80;sketch=1;hachureGap=4;pointerEvents=0;fontFamily=Architects Daughter;fontSource=https%3A%2F%2Ffonts.googleapis.com%2Fcss%3Ffamily%3DArchitects%2BDaughter;fontSize=20;" vertex="1" parent="bB1kgd-d4xJyHsXjS3CH-1">
          <mxGeometry x="234.3681747269891" y="587.6411960132891" width="103.58814352574105" height="10.963455149501662" as="geometry" />
        </mxCell>
        <mxCell id="XZD3cZMc1_XpuEL4FHEu-184" value="3344" style="strokeColor=none;fillColor=none;fontSize=10;fontColor=#596780;align=left;html=1;sketch=1;hachureGap=4;pointerEvents=0;fontFamily=Architects Daughter;fontSource=https%3A%2F%2Ffonts.googleapis.com%2Fcss%3Ffamily%3DArchitects%2BDaughter;" vertex="1" parent="bB1kgd-d4xJyHsXjS3CH-1">
          <mxGeometry x="14.243369734789395" y="584.3521594684386" width="51.79407176287052" height="21.926910299003325" as="geometry" />
        </mxCell>
        <mxCell id="XZD3cZMc1_XpuEL4FHEu-185" value="3" style="strokeColor=none;fillColor=none;fontSize=10;fontColor=#596780;align=right;html=1;sketch=1;hachureGap=4;pointerEvents=0;fontFamily=Architects Daughter;fontSource=https%3A%2F%2Ffonts.googleapis.com%2Fcss%3Ffamily%3DArchitects%2BDaughter;" vertex="1" parent="bB1kgd-d4xJyHsXjS3CH-1">
          <mxGeometry x="286.1622464898596" y="584.3521594684386" width="51.79407176287052" height="21.926910299003325" as="geometry" />
        </mxCell>
        <mxCell id="XZD3cZMc1_XpuEL4FHEu-190" value="" style="sketch=0;outlineConnect=0;fontColor=#232F3E;gradientColor=none;fillColor=#D45B07;strokeColor=none;dashed=0;verticalLabelPosition=bottom;verticalAlign=top;align=center;html=1;fontSize=12;fontStyle=0;aspect=fixed;pointerEvents=1;shape=mxgraph.aws4.container_registry_image;" vertex="1" parent="bB1kgd-d4xJyHsXjS3CH-1">
          <mxGeometry x="480.39001560062405" y="516.3787375415283" width="21.926910299003325" height="21.926910299003325" as="geometry" />
        </mxCell>
        <mxCell id="XZD3cZMc1_XpuEL4FHEu-192" value="0" style="strokeColor=none;fillColor=none;fontSize=10;fontColor=#596780;align=right;html=1;sketch=1;hachureGap=4;pointerEvents=0;fontFamily=Architects Daughter;fontSource=https%3A%2F%2Ffonts.googleapis.com%2Fcss%3Ffamily%3DArchitects%2BDaughter;" vertex="1" parent="bB1kgd-d4xJyHsXjS3CH-1">
          <mxGeometry x="352.19968798751955" y="518.5714285714286" width="51.79407176287052" height="21.926910299003325" as="geometry" />
        </mxCell>
        <mxCell id="XZD3cZMc1_XpuEL4FHEu-193" value="0" style="strokeColor=none;fillColor=none;fontSize=10;fontColor=#596780;align=right;html=1;sketch=1;hachureGap=4;pointerEvents=0;fontFamily=Architects Daughter;fontSource=https%3A%2F%2Ffonts.googleapis.com%2Fcss%3Ffamily%3DArchitects%2BDaughter;" vertex="1" parent="bB1kgd-d4xJyHsXjS3CH-1">
          <mxGeometry x="352.19968798751955" y="551.4617940199336" width="51.79407176287052" height="21.926910299003325" as="geometry" />
        </mxCell>
        <mxCell id="XZD3cZMc1_XpuEL4FHEu-194" value="0" style="strokeColor=none;fillColor=none;fontSize=10;fontColor=#596780;align=right;html=1;sketch=1;hachureGap=4;pointerEvents=0;fontFamily=Architects Daughter;fontSource=https%3A%2F%2Ffonts.googleapis.com%2Fcss%3Ffamily%3DArchitects%2BDaughter;" vertex="1" parent="bB1kgd-d4xJyHsXjS3CH-1">
          <mxGeometry x="352.19968798751955" y="584.3521594684386" width="51.79407176287052" height="21.926910299003325" as="geometry" />
        </mxCell>
        <mxCell id="XZD3cZMc1_XpuEL4FHEu-196" value="" style="rounded=1;fillColor=#F0F2F5;strokeColor=#D8DCE3;fontColor=#000000;align=left;verticalAlign=middle;fontStyle=0;fontSize=12;labelPosition=right;verticalLabelPosition=middle;spacingLeft=10;html=1;shadow=0;dashed=0;sketch=0;hachureGap=4;pointerEvents=0;fontFamily=Architects Daughter;fontSource=https%3A%2F%2Ffonts.googleapis.com%2Fcss%3Ffamily%3DArchitects%2BDaughter;" vertex="1" parent="bB1kgd-d4xJyHsXjS3CH-1">
          <mxGeometry x="571.0296411856475" y="539.4019933554817" width="15.538221528861158" height="13.156146179401995" as="geometry" />
        </mxCell>
        <mxCell id="XZD3cZMc1_XpuEL4FHEu-213" value="" style="rounded=1;fillColor=#F0F2F5;strokeColor=#D8DCE3;fontColor=#000000;align=left;verticalAlign=middle;fontStyle=0;fontSize=12;labelPosition=right;verticalLabelPosition=middle;spacingLeft=10;html=1;shadow=0;dashed=0;sketch=0;hachureGap=4;pointerEvents=0;fontFamily=Architects Daughter;fontSource=https%3A%2F%2Ffonts.googleapis.com%2Fcss%3Ffamily%3DArchitects%2BDaughter;arcSize=0;" vertex="1" parent="bB1kgd-d4xJyHsXjS3CH-1">
          <mxGeometry x="778.2059282371296" y="520.764119601329" width="15.538221528861158" height="13.156146179401995" as="geometry" />
        </mxCell>
        <mxCell id="XZD3cZMc1_XpuEL4FHEu-214" value="" style="sketch=0;outlineConnect=0;fontColor=#232F3E;gradientColor=none;fillColor=#D45B07;strokeColor=none;dashed=0;verticalLabelPosition=bottom;verticalAlign=top;align=center;html=1;fontSize=12;fontStyle=0;aspect=fixed;pointerEvents=1;shape=mxgraph.aws4.container_registry_image;" vertex="1" parent="bB1kgd-d4xJyHsXjS3CH-1">
          <mxGeometry x="480.39001560062405" y="551.4617940199336" width="21.926910299003325" height="21.926910299003325" as="geometry" />
        </mxCell>
        <mxCell id="XZD3cZMc1_XpuEL4FHEu-215" value="" style="sketch=0;outlineConnect=0;fontColor=#232F3E;gradientColor=none;fillColor=#D45B07;strokeColor=none;dashed=0;verticalLabelPosition=bottom;verticalAlign=top;align=center;html=1;fontSize=12;fontStyle=0;aspect=fixed;pointerEvents=1;shape=mxgraph.aws4.container_registry_image;" vertex="1" parent="bB1kgd-d4xJyHsXjS3CH-1">
          <mxGeometry x="480.39001560062405" y="584.3521594684386" width="21.926910299003325" height="21.926910299003325" as="geometry" />
        </mxCell>
        <mxCell id="XZD3cZMc1_XpuEL4FHEu-220" value="" style="rounded=1;fillColor=#F0F2F5;strokeColor=#D8DCE3;fontColor=#000000;align=left;verticalAlign=middle;fontStyle=0;fontSize=12;labelPosition=right;verticalLabelPosition=middle;spacingLeft=10;html=1;shadow=0;dashed=0;sketch=0;hachureGap=4;pointerEvents=0;fontFamily=Architects Daughter;fontSource=https%3A%2F%2Ffonts.googleapis.com%2Fcss%3Ffamily%3DArchitects%2BDaughter;" vertex="1" parent="bB1kgd-d4xJyHsXjS3CH-1">
          <mxGeometry x="571.0296411856475" y="599.7009966777408" width="15.538221528861158" height="13.156146179401995" as="geometry" />
        </mxCell>
        <mxCell id="XZD3cZMc1_XpuEL4FHEu-226" value="Publish" style="rounded=1;fillColor=#0057D8;strokeColor=none;html=1;fontColor=#ffffff;align=center;verticalAlign=middle;fontStyle=0;fontSize=12;sketch=0;" vertex="1" parent="bB1kgd-d4xJyHsXjS3CH-1">
          <mxGeometry x="712.1684867394697" y="623.8205980066446" width="111.35725429017162" height="36.179401993355484" as="geometry" />
        </mxCell>
        <mxCell id="XZD3cZMc1_XpuEL4FHEu-227" value="&lt;font style=&quot;font-size: 11px;&quot;&gt;Left&lt;/font&gt;" style="rounded=1;fillColor=#F1F2F4;strokeColor=none;html=1;fontColor=#596780;align=left;fontSize=12;spacingLeft=10;sketch=1;hachureGap=4;pointerEvents=0;fontFamily=Architects Daughter;fontSource=https%3A%2F%2Ffonts.googleapis.com%2Fcss%3Ffamily%3DArchitects%2BDaughter;" vertex="1" parent="bB1kgd-d4xJyHsXjS3CH-1">
          <mxGeometry x="635.7722308892357" y="269.7009966777409" width="77.69110764430579" height="32.89036544850499" as="geometry" />
        </mxCell>
        <mxCell id="XZD3cZMc1_XpuEL4FHEu-228" value="" style="shape=triangle;direction=south;fillColor=#596780;strokeColor=none;html=1;sketch=0;hachureGap=4;pointerEvents=0;fontFamily=Architects Daughter;fontSource=https%3A%2F%2Ffonts.googleapis.com%2Fcss%3Ffamily%3DArchitects%2BDaughter;fontSize=20;" vertex="1" parent="XZD3cZMc1_XpuEL4FHEu-227">
          <mxGeometry x="1" y="0.5" width="12" height="6" relative="1" as="geometry">
            <mxPoint x="-2" y="-3" as="offset" />
          </mxGeometry>
        </mxCell>
        <mxCell id="XZD3cZMc1_XpuEL4FHEu-229" value="&lt;font style=&quot;font-size: 11px;&quot;&gt;Right&lt;/font&gt;" style="rounded=1;fillColor=#F1F2F4;strokeColor=none;html=1;fontColor=#596780;align=left;fontSize=12;spacingLeft=10;sketch=1;hachureGap=4;pointerEvents=0;fontFamily=Architects Daughter;fontSource=https%3A%2F%2Ffonts.googleapis.com%2Fcss%3Ffamily%3DArchitects%2BDaughter;" vertex="1" parent="bB1kgd-d4xJyHsXjS3CH-1">
          <mxGeometry x="635.7722308892357" y="513.0897009966778" width="77.69110764430579" height="32.89036544850499" as="geometry" />
        </mxCell>
        <mxCell id="XZD3cZMc1_XpuEL4FHEu-230" value="" style="shape=triangle;direction=south;fillColor=#596780;strokeColor=none;html=1;sketch=0;hachureGap=4;pointerEvents=0;fontFamily=Architects Daughter;fontSource=https%3A%2F%2Ffonts.googleapis.com%2Fcss%3Ffamily%3DArchitects%2BDaughter;fontSize=20;" vertex="1" parent="XZD3cZMc1_XpuEL4FHEu-229">
          <mxGeometry x="1" y="0.5" width="12" height="6" relative="1" as="geometry">
            <mxPoint x="-2" y="-3" as="offset" />
          </mxGeometry>
        </mxCell>
        <mxCell id="p55R7dobtkASWbK1wlCh-53" value="" style="rounded=0;whiteSpace=wrap;html=1;glass=0;sketch=0;strokeColor=#b85450;fontSize=11;fillColor=#f8cecc;" vertex="1" parent="bB1kgd-d4xJyHsXjS3CH-1">
          <mxGeometry x="12.94851794071763" y="400.1661129568107" width="608.5803432137287" height="98.67109634551495" as="geometry" />
        </mxCell>
        <mxCell id="p55R7dobtkASWbK1wlCh-54" value="" style="rounded=0;whiteSpace=wrap;html=1;glass=0;sketch=0;strokeColor=#d6b656;fontSize=11;fillColor=#fff2cc;" vertex="1" parent="bB1kgd-d4xJyHsXjS3CH-1">
          <mxGeometry x="12.94851794071763" y="334.3853820598007" width="608.5803432137287" height="65.78073089700997" as="geometry" />
        </mxCell>
        <mxCell id="p55R7dobtkASWbK1wlCh-55" value="" style="rounded=0;whiteSpace=wrap;html=1;glass=0;sketch=0;strokeColor=#d79b00;fontSize=11;fillColor=#ffe6cc;" vertex="1" parent="bB1kgd-d4xJyHsXjS3CH-1">
          <mxGeometry x="12.94851794071763" y="268.60465116279073" width="608.5803432137287" height="65.78073089700997" as="geometry" />
        </mxCell>
        <mxCell id="p55R7dobtkASWbK1wlCh-56" value="Line Listing 1" style="strokeColor=none;fillColor=none;fontSize=12;fontColor=#596780;align=left;html=1;sketch=1;hachureGap=4;pointerEvents=0;fontFamily=Architects Daughter;fontSource=https%3A%2F%2Ffonts.googleapis.com%2Fcss%3Ffamily%3DArchitects%2BDaughter;" vertex="1" parent="bB1kgd-d4xJyHsXjS3CH-1">
          <mxGeometry x="77.69110764430579" y="271.8936877076412" width="310.76443057722315" height="21.926910299003325" as="geometry" />
        </mxCell>
        <mxCell id="p55R7dobtkASWbK1wlCh-58" value="5555" style="strokeColor=none;fillColor=none;fontSize=10;fontColor=#596780;align=left;html=1;sketch=1;hachureGap=4;pointerEvents=0;fontFamily=Architects Daughter;fontSource=https%3A%2F%2Ffonts.googleapis.com%2Fcss%3Ffamily%3DArchitects%2BDaughter;" vertex="1" parent="bB1kgd-d4xJyHsXjS3CH-1">
          <mxGeometry x="12.94851794071763" y="271.8936877076412" width="51.79407176287052" height="21.926910299003325" as="geometry" />
        </mxCell>
        <mxCell id="p55R7dobtkASWbK1wlCh-59" value="1" style="strokeColor=none;fillColor=none;fontSize=10;fontColor=#596780;align=right;html=1;sketch=1;hachureGap=4;pointerEvents=0;fontFamily=Architects Daughter;fontSource=https%3A%2F%2Ffonts.googleapis.com%2Fcss%3Ffamily%3DArchitects%2BDaughter;" vertex="1" parent="bB1kgd-d4xJyHsXjS3CH-1">
          <mxGeometry x="284.8673946957879" y="271.8936877076412" width="51.79407176287052" height="21.926910299003325" as="geometry" />
        </mxCell>
        <mxCell id="p55R7dobtkASWbK1wlCh-60" value="Line Listing 2" style="strokeColor=none;fillColor=none;fontSize=12;fontColor=#596780;align=left;html=1;sketch=1;hachureGap=4;pointerEvents=0;fontFamily=Architects Daughter;fontSource=https%3A%2F%2Ffonts.googleapis.com%2Fcss%3Ffamily%3DArchitects%2BDaughter;" vertex="1" parent="bB1kgd-d4xJyHsXjS3CH-1">
          <mxGeometry x="77.69110764430579" y="304.78405315614623" width="310.76443057722315" height="21.926910299003325" as="geometry" />
        </mxCell>
        <mxCell id="p55R7dobtkASWbK1wlCh-62" value="5555" style="strokeColor=none;fillColor=none;fontSize=10;fontColor=#596780;align=left;html=1;sketch=1;hachureGap=4;pointerEvents=0;fontFamily=Architects Daughter;fontSource=https%3A%2F%2Ffonts.googleapis.com%2Fcss%3Ffamily%3DArchitects%2BDaughter;" vertex="1" parent="bB1kgd-d4xJyHsXjS3CH-1">
          <mxGeometry x="12.94851794071763" y="304.78405315614623" width="51.79407176287052" height="21.926910299003325" as="geometry" />
        </mxCell>
        <mxCell id="p55R7dobtkASWbK1wlCh-63" value="2" style="strokeColor=none;fillColor=none;fontSize=10;fontColor=#596780;align=right;html=1;sketch=1;hachureGap=4;pointerEvents=0;fontFamily=Architects Daughter;fontSource=https%3A%2F%2Ffonts.googleapis.com%2Fcss%3Ffamily%3DArchitects%2BDaughter;" vertex="1" parent="bB1kgd-d4xJyHsXjS3CH-1">
          <mxGeometry x="284.8673946957879" y="304.78405315614623" width="51.79407176287052" height="21.926910299003325" as="geometry" />
        </mxCell>
        <mxCell id="p55R7dobtkASWbK1wlCh-64" value="Promo 1" style="strokeColor=none;fillColor=none;fontSize=12;fontColor=#596780;align=left;html=1;sketch=1;hachureGap=4;pointerEvents=0;fontFamily=Architects Daughter;fontSource=https%3A%2F%2Ffonts.googleapis.com%2Fcss%3Ffamily%3DArchitects%2BDaughter;" vertex="1" parent="bB1kgd-d4xJyHsXjS3CH-1">
          <mxGeometry x="77.69110764430579" y="337.6744186046512" width="310.76443057722315" height="21.926910299003325" as="geometry" />
        </mxCell>
        <mxCell id="p55R7dobtkASWbK1wlCh-66" value="5555" style="strokeColor=none;fillColor=none;fontSize=10;fontColor=#596780;align=left;html=1;sketch=1;hachureGap=4;pointerEvents=0;fontFamily=Architects Daughter;fontSource=https%3A%2F%2Ffonts.googleapis.com%2Fcss%3Ffamily%3DArchitects%2BDaughter;" vertex="1" parent="bB1kgd-d4xJyHsXjS3CH-1">
          <mxGeometry x="12.94851794071763" y="337.6744186046512" width="51.79407176287052" height="21.926910299003325" as="geometry" />
        </mxCell>
        <mxCell id="p55R7dobtkASWbK1wlCh-67" value="3" style="strokeColor=none;fillColor=none;fontSize=10;fontColor=#596780;align=right;html=1;sketch=1;hachureGap=4;pointerEvents=0;fontFamily=Architects Daughter;fontSource=https%3A%2F%2Ffonts.googleapis.com%2Fcss%3Ffamily%3DArchitects%2BDaughter;" vertex="1" parent="bB1kgd-d4xJyHsXjS3CH-1">
          <mxGeometry x="284.8673946957879" y="337.6744186046512" width="51.79407176287052" height="21.926910299003325" as="geometry" />
        </mxCell>
        <mxCell id="p55R7dobtkASWbK1wlCh-68" value="Promo 2" style="strokeColor=none;fillColor=none;fontSize=12;fontColor=#596780;align=left;html=1;sketch=1;hachureGap=4;pointerEvents=0;fontFamily=Architects Daughter;fontSource=https%3A%2F%2Ffonts.googleapis.com%2Fcss%3Ffamily%3DArchitects%2BDaughter;" vertex="1" parent="bB1kgd-d4xJyHsXjS3CH-1">
          <mxGeometry x="77.69110764430579" y="370.5647840531562" width="310.76443057722315" height="21.926910299003325" as="geometry" />
        </mxCell>
        <mxCell id="p55R7dobtkASWbK1wlCh-70" value="5555" style="strokeColor=none;fillColor=none;fontSize=10;fontColor=#596780;align=left;html=1;sketch=1;hachureGap=4;pointerEvents=0;fontFamily=Architects Daughter;fontSource=https%3A%2F%2Ffonts.googleapis.com%2Fcss%3Ffamily%3DArchitects%2BDaughter;" vertex="1" parent="bB1kgd-d4xJyHsXjS3CH-1">
          <mxGeometry x="12.94851794071763" y="370.5647840531562" width="51.79407176287052" height="21.926910299003325" as="geometry" />
        </mxCell>
        <mxCell id="p55R7dobtkASWbK1wlCh-71" value="4" style="strokeColor=none;fillColor=none;fontSize=10;fontColor=#596780;align=right;html=1;sketch=1;hachureGap=4;pointerEvents=0;fontFamily=Architects Daughter;fontSource=https%3A%2F%2Ffonts.googleapis.com%2Fcss%3Ffamily%3DArchitects%2BDaughter;" vertex="1" parent="bB1kgd-d4xJyHsXjS3CH-1">
          <mxGeometry x="284.8673946957879" y="370.5647840531562" width="51.79407176287052" height="21.926910299003325" as="geometry" />
        </mxCell>
        <mxCell id="p55R7dobtkASWbK1wlCh-72" value="" style="sketch=0;outlineConnect=0;fontColor=#232F3E;gradientColor=none;fillColor=#D45B07;strokeColor=none;dashed=0;verticalLabelPosition=bottom;verticalAlign=top;align=center;html=1;fontSize=12;fontStyle=0;aspect=fixed;pointerEvents=1;shape=mxgraph.aws4.container_registry_image;" vertex="1" parent="bB1kgd-d4xJyHsXjS3CH-1">
          <mxGeometry x="479.09516380655236" y="269.7009966777409" width="21.926910299003325" height="21.926910299003325" as="geometry" />
        </mxCell>
        <mxCell id="p55R7dobtkASWbK1wlCh-73" value="0" style="strokeColor=none;fillColor=none;fontSize=10;fontColor=#596780;align=right;html=1;sketch=1;hachureGap=4;pointerEvents=0;fontFamily=Architects Daughter;fontSource=https%3A%2F%2Ffonts.googleapis.com%2Fcss%3Ffamily%3DArchitects%2BDaughter;" vertex="1" parent="bB1kgd-d4xJyHsXjS3CH-1">
          <mxGeometry x="350.90483619344775" y="271.8936877076412" width="51.79407176287052" height="21.926910299003325" as="geometry" />
        </mxCell>
        <mxCell id="p55R7dobtkASWbK1wlCh-74" value="0" style="strokeColor=none;fillColor=none;fontSize=10;fontColor=#596780;align=right;html=1;sketch=1;hachureGap=4;pointerEvents=0;fontFamily=Architects Daughter;fontSource=https%3A%2F%2Ffonts.googleapis.com%2Fcss%3Ffamily%3DArchitects%2BDaughter;" vertex="1" parent="bB1kgd-d4xJyHsXjS3CH-1">
          <mxGeometry x="350.90483619344775" y="304.78405315614623" width="51.79407176287052" height="21.926910299003325" as="geometry" />
        </mxCell>
        <mxCell id="p55R7dobtkASWbK1wlCh-75" value="0" style="strokeColor=none;fillColor=none;fontSize=10;fontColor=#596780;align=right;html=1;sketch=1;hachureGap=4;pointerEvents=0;fontFamily=Architects Daughter;fontSource=https%3A%2F%2Ffonts.googleapis.com%2Fcss%3Ffamily%3DArchitects%2BDaughter;" vertex="1" parent="bB1kgd-d4xJyHsXjS3CH-1">
          <mxGeometry x="350.90483619344775" y="337.6744186046512" width="51.79407176287052" height="21.926910299003325" as="geometry" />
        </mxCell>
        <mxCell id="p55R7dobtkASWbK1wlCh-76" value="0" style="strokeColor=none;fillColor=none;fontSize=10;fontColor=#596780;align=right;html=1;sketch=1;hachureGap=4;pointerEvents=0;fontFamily=Architects Daughter;fontSource=https%3A%2F%2Ffonts.googleapis.com%2Fcss%3Ffamily%3DArchitects%2BDaughter;" vertex="1" parent="bB1kgd-d4xJyHsXjS3CH-1">
          <mxGeometry x="350.90483619344775" y="370.5647840531562" width="51.79407176287052" height="21.926910299003325" as="geometry" />
        </mxCell>
        <mxCell id="p55R7dobtkASWbK1wlCh-77" value="" style="html=1;shadow=0;dashed=0;shape=mxgraph.atlassian.checkbox_2;fillColor=#0057D8;strokeColor=none;fontColor=#000000;align=left;verticalAlign=middle;fontStyle=0;fontSize=12;labelPosition=right;verticalLabelPosition=middle;spacingLeft=10;sketch=0;hachureGap=4;pointerEvents=0;fontFamily=Architects Daughter;fontSource=https%3A%2F%2Ffonts.googleapis.com%2Fcss%3Ffamily%3DArchitects%2BDaughter;" vertex="1" parent="bB1kgd-d4xJyHsXjS3CH-1">
          <mxGeometry x="569.7347893915758" y="292.7242524916944" width="15.538221528861158" height="13.156146179401995" as="geometry" />
        </mxCell>
        <mxCell id="p55R7dobtkASWbK1wlCh-78" value="Promo 3" style="strokeColor=none;fillColor=none;fontSize=12;fontColor=#596780;align=left;html=1;sketch=1;hachureGap=4;pointerEvents=0;fontFamily=Architects Daughter;fontSource=https%3A%2F%2Ffonts.googleapis.com%2Fcss%3Ffamily%3DArchitects%2BDaughter;" vertex="1" parent="bB1kgd-d4xJyHsXjS3CH-1">
          <mxGeometry x="77.69110764430579" y="403.45514950166114" width="310.76443057722315" height="21.926910299003325" as="geometry" />
        </mxCell>
        <mxCell id="p55R7dobtkASWbK1wlCh-80" value="5555" style="strokeColor=none;fillColor=none;fontSize=10;fontColor=#596780;align=left;html=1;sketch=1;hachureGap=4;pointerEvents=0;fontFamily=Architects Daughter;fontSource=https%3A%2F%2Ffonts.googleapis.com%2Fcss%3Ffamily%3DArchitects%2BDaughter;" vertex="1" parent="bB1kgd-d4xJyHsXjS3CH-1">
          <mxGeometry x="12.94851794071763" y="403.45514950166114" width="51.79407176287052" height="21.926910299003325" as="geometry" />
        </mxCell>
        <mxCell id="p55R7dobtkASWbK1wlCh-81" value="5" style="strokeColor=none;fillColor=none;fontSize=10;fontColor=#596780;align=right;html=1;sketch=1;hachureGap=4;pointerEvents=0;fontFamily=Architects Daughter;fontSource=https%3A%2F%2Ffonts.googleapis.com%2Fcss%3Ffamily%3DArchitects%2BDaughter;" vertex="1" parent="bB1kgd-d4xJyHsXjS3CH-1">
          <mxGeometry x="284.8673946957879" y="403.45514950166114" width="51.79407176287052" height="21.926910299003325" as="geometry" />
        </mxCell>
        <mxCell id="p55R7dobtkASWbK1wlCh-82" value="Promo 4a" style="strokeColor=none;fillColor=none;fontSize=12;fontColor=#596780;align=left;html=1;sketch=1;hachureGap=4;pointerEvents=0;fontFamily=Architects Daughter;fontSource=https%3A%2F%2Ffonts.googleapis.com%2Fcss%3Ffamily%3DArchitects%2BDaughter;" vertex="1" parent="bB1kgd-d4xJyHsXjS3CH-1">
          <mxGeometry x="77.69110764430579" y="436.34551495016615" width="310.76443057722315" height="21.926910299003325" as="geometry" />
        </mxCell>
        <mxCell id="p55R7dobtkASWbK1wlCh-84" value="5555" style="strokeColor=none;fillColor=none;fontSize=10;fontColor=#596780;align=left;html=1;sketch=1;hachureGap=4;pointerEvents=0;fontFamily=Architects Daughter;fontSource=https%3A%2F%2Ffonts.googleapis.com%2Fcss%3Ffamily%3DArchitects%2BDaughter;" vertex="1" parent="bB1kgd-d4xJyHsXjS3CH-1">
          <mxGeometry x="12.94851794071763" y="436.34551495016615" width="51.79407176287052" height="21.926910299003325" as="geometry" />
        </mxCell>
        <mxCell id="p55R7dobtkASWbK1wlCh-85" value="6" style="strokeColor=none;fillColor=none;fontSize=10;fontColor=#596780;align=right;html=1;sketch=1;hachureGap=4;pointerEvents=0;fontFamily=Architects Daughter;fontSource=https%3A%2F%2Ffonts.googleapis.com%2Fcss%3Ffamily%3DArchitects%2BDaughter;" vertex="1" parent="bB1kgd-d4xJyHsXjS3CH-1">
          <mxGeometry x="284.8673946957879" y="436.34551495016615" width="51.79407176287052" height="21.926910299003325" as="geometry" />
        </mxCell>
        <mxCell id="p55R7dobtkASWbK1wlCh-86" value="0" style="strokeColor=none;fillColor=none;fontSize=10;fontColor=#596780;align=right;html=1;sketch=1;hachureGap=4;pointerEvents=0;fontFamily=Architects Daughter;fontSource=https%3A%2F%2Ffonts.googleapis.com%2Fcss%3Ffamily%3DArchitects%2BDaughter;" vertex="1" parent="bB1kgd-d4xJyHsXjS3CH-1">
          <mxGeometry x="350.90483619344775" y="403.45514950166114" width="51.79407176287052" height="21.926910299003325" as="geometry" />
        </mxCell>
        <mxCell id="p55R7dobtkASWbK1wlCh-87" value="0" style="strokeColor=none;fillColor=none;fontSize=10;fontColor=#596780;align=right;html=1;sketch=1;hachureGap=4;pointerEvents=0;fontFamily=Architects Daughter;fontSource=https%3A%2F%2Ffonts.googleapis.com%2Fcss%3Ffamily%3DArchitects%2BDaughter;" vertex="1" parent="bB1kgd-d4xJyHsXjS3CH-1">
          <mxGeometry x="350.90483619344775" y="436.34551495016615" width="51.79407176287052" height="21.926910299003325" as="geometry" />
        </mxCell>
        <mxCell id="p55R7dobtkASWbK1wlCh-88" value="Promo 4b" style="strokeColor=none;fillColor=none;fontSize=12;fontColor=#596780;align=left;html=1;sketch=1;hachureGap=4;pointerEvents=0;fontFamily=Architects Daughter;fontSource=https%3A%2F%2Ffonts.googleapis.com%2Fcss%3Ffamily%3DArchitects%2BDaughter;" vertex="1" parent="bB1kgd-d4xJyHsXjS3CH-1">
          <mxGeometry x="77.69110764430579" y="469.23588039867116" width="310.76443057722315" height="21.926910299003325" as="geometry" />
        </mxCell>
        <mxCell id="p55R7dobtkASWbK1wlCh-90" value="5555" style="strokeColor=none;fillColor=none;fontSize=10;fontColor=#596780;align=left;html=1;sketch=1;hachureGap=4;pointerEvents=0;fontFamily=Architects Daughter;fontSource=https%3A%2F%2Ffonts.googleapis.com%2Fcss%3Ffamily%3DArchitects%2BDaughter;" vertex="1" parent="bB1kgd-d4xJyHsXjS3CH-1">
          <mxGeometry x="12.94851794071763" y="469.23588039867116" width="51.79407176287052" height="21.926910299003325" as="geometry" />
        </mxCell>
        <mxCell id="p55R7dobtkASWbK1wlCh-91" value="6" style="strokeColor=none;fillColor=none;fontSize=10;fontColor=#596780;align=right;html=1;sketch=1;hachureGap=4;pointerEvents=0;fontFamily=Architects Daughter;fontSource=https%3A%2F%2Ffonts.googleapis.com%2Fcss%3Ffamily%3DArchitects%2BDaughter;" vertex="1" parent="bB1kgd-d4xJyHsXjS3CH-1">
          <mxGeometry x="284.8673946957879" y="469.23588039867116" width="51.79407176287052" height="21.926910299003325" as="geometry" />
        </mxCell>
        <mxCell id="p55R7dobtkASWbK1wlCh-92" value="1" style="strokeColor=none;fillColor=none;fontSize=10;fontColor=#596780;align=right;html=1;sketch=1;hachureGap=4;pointerEvents=0;fontFamily=Architects Daughter;fontSource=https%3A%2F%2Ffonts.googleapis.com%2Fcss%3Ffamily%3DArchitects%2BDaughter;" vertex="1" parent="bB1kgd-d4xJyHsXjS3CH-1">
          <mxGeometry x="350.90483619344775" y="469.23588039867116" width="51.79407176287052" height="21.926910299003325" as="geometry" />
        </mxCell>
        <mxCell id="p55R7dobtkASWbK1wlCh-93" value="" style="sketch=0;outlineConnect=0;fontColor=#232F3E;gradientColor=none;fillColor=#D45B07;strokeColor=none;dashed=0;verticalLabelPosition=bottom;verticalAlign=top;align=center;html=1;fontSize=12;fontStyle=0;aspect=fixed;pointerEvents=1;shape=mxgraph.aws4.container_registry_image;" vertex="1" parent="bB1kgd-d4xJyHsXjS3CH-1">
          <mxGeometry x="479.09516380655236" y="304.78405315614623" width="21.926910299003325" height="21.926910299003325" as="geometry" />
        </mxCell>
        <mxCell id="p55R7dobtkASWbK1wlCh-94" value="" style="sketch=0;outlineConnect=0;fontColor=#232F3E;gradientColor=none;fillColor=#D45B07;strokeColor=none;dashed=0;verticalLabelPosition=bottom;verticalAlign=top;align=center;html=1;fontSize=12;fontStyle=0;aspect=fixed;pointerEvents=1;shape=mxgraph.aws4.container_registry_image;" vertex="1" parent="bB1kgd-d4xJyHsXjS3CH-1">
          <mxGeometry x="479.09516380655236" y="337.6744186046512" width="21.926910299003325" height="21.926910299003325" as="geometry" />
        </mxCell>
        <mxCell id="p55R7dobtkASWbK1wlCh-95" value="" style="sketch=0;outlineConnect=0;fontColor=#232F3E;gradientColor=none;fillColor=#D45B07;strokeColor=none;dashed=0;verticalLabelPosition=bottom;verticalAlign=top;align=center;html=1;fontSize=12;fontStyle=0;aspect=fixed;pointerEvents=1;shape=mxgraph.aws4.container_registry_image;" vertex="1" parent="bB1kgd-d4xJyHsXjS3CH-1">
          <mxGeometry x="479.09516380655236" y="370.5647840531562" width="21.926910299003325" height="21.926910299003325" as="geometry" />
        </mxCell>
        <mxCell id="p55R7dobtkASWbK1wlCh-96" value="" style="sketch=0;outlineConnect=0;fontColor=#232F3E;gradientColor=none;fillColor=#D45B07;strokeColor=none;dashed=0;verticalLabelPosition=bottom;verticalAlign=top;align=center;html=1;fontSize=12;fontStyle=0;aspect=fixed;pointerEvents=1;shape=mxgraph.aws4.container_registry_image;" vertex="1" parent="bB1kgd-d4xJyHsXjS3CH-1">
          <mxGeometry x="479.09516380655236" y="403.45514950166114" width="21.926910299003325" height="21.926910299003325" as="geometry" />
        </mxCell>
        <mxCell id="p55R7dobtkASWbK1wlCh-97" value="" style="sketch=0;outlineConnect=0;fontColor=#232F3E;gradientColor=none;fillColor=#D45B07;strokeColor=none;dashed=0;verticalLabelPosition=bottom;verticalAlign=top;align=center;html=1;fontSize=12;fontStyle=0;aspect=fixed;pointerEvents=1;shape=mxgraph.aws4.container_registry_image;" vertex="1" parent="bB1kgd-d4xJyHsXjS3CH-1">
          <mxGeometry x="479.09516380655236" y="436.34551495016615" width="21.926910299003325" height="21.926910299003325" as="geometry" />
        </mxCell>
        <mxCell id="p55R7dobtkASWbK1wlCh-98" value="" style="sketch=0;outlineConnect=0;fontColor=#232F3E;gradientColor=none;fillColor=#D45B07;strokeColor=none;dashed=0;verticalLabelPosition=bottom;verticalAlign=top;align=center;html=1;fontSize=12;fontStyle=0;aspect=fixed;pointerEvents=1;shape=mxgraph.aws4.container_registry_image;" vertex="1" parent="bB1kgd-d4xJyHsXjS3CH-1">
          <mxGeometry x="479.09516380655236" y="467.0431893687708" width="21.926910299003325" height="21.926910299003325" as="geometry" />
        </mxCell>
        <mxCell id="p55R7dobtkASWbK1wlCh-99" value="" style="rounded=1;fillColor=#F0F2F5;strokeColor=#D8DCE3;fontColor=#000000;align=left;verticalAlign=middle;fontStyle=0;fontSize=12;labelPosition=right;verticalLabelPosition=middle;spacingLeft=10;html=1;shadow=0;dashed=0;sketch=0;hachureGap=4;pointerEvents=0;fontFamily=Architects Daughter;fontSource=https%3A%2F%2Ffonts.googleapis.com%2Fcss%3Ffamily%3DArchitects%2BDaughter;" vertex="1" parent="bB1kgd-d4xJyHsXjS3CH-1">
          <mxGeometry x="569.7347893915758" y="361.79401993355486" width="15.538221528861158" height="13.156146179401995" as="geometry" />
        </mxCell>
        <mxCell id="p55R7dobtkASWbK1wlCh-100" value="" style="rounded=1;fillColor=#F0F2F5;strokeColor=#D8DCE3;fontColor=#000000;align=left;verticalAlign=middle;fontStyle=0;fontSize=12;labelPosition=right;verticalLabelPosition=middle;spacingLeft=10;html=1;shadow=0;dashed=0;sketch=0;hachureGap=4;pointerEvents=0;fontFamily=Architects Daughter;fontSource=https%3A%2F%2Ffonts.googleapis.com%2Fcss%3Ffamily%3DArchitects%2BDaughter;" vertex="1" parent="bB1kgd-d4xJyHsXjS3CH-1">
          <mxGeometry x="569.7347893915758" y="439.63455149501664" width="15.538221528861158" height="13.156146179401995" as="geometry" />
        </mxCell>
        <mxCell id="p55R7dobtkASWbK1wlCh-1" value="" style="rounded=1;whiteSpace=wrap;html=1;fontSize=11;glass=0;strokeColor=none;gradientColor=#FFFFFF;sketch=0;opacity=40;" vertex="1" parent="bB1kgd-d4xJyHsXjS3CH-1">
          <mxGeometry y="515.2823920265781" width="828.7051482059284" height="108.53820598006646" as="geometry" />
        </mxCell>
      </root>
    </mxGraphModel>
  </diagram>
</mxfile>
